<svg width="51" height="68" viewBox="0 0 51 68" fill="none" xmlns="http://www.w3.org/2000/svg">
<mask id="mask0_35_5" style="mask-type:luminance" maskUnits="userSpaceOnUse" x="0" y="0" width="51" height="68">
<path d="M50.5573 0H0V68H50.5573V0Z" fill="white"/>
</mask>
<g mask="url(#mask0_35_5)">
<path fill-rule="evenodd" clip-rule="evenodd" d="M32.8704 11.9473C32.5855 11.988 32.3005 12.1101 32.0766 12.2729C31.8731 12.4358 31.7103 12.6189 31.5678 12.8428C31.7103 12.5579 31.8324 12.2729 31.9342 11.9676C31.9749 11.8862 31.812 11.8659 31.751 11.8048C31.8324 11.6827 32.2191 11.1128 32.2598 10.7261C32.3209 10.3597 32.2598 9.99338 32.097 9.68808C32.097 9.68808 31.7103 10.1562 31.405 10.4615C31.1811 10.665 30.9165 10.8279 30.6519 10.95C30.6519 10.95 30.6112 10.1766 30.6112 9.72878C30.5908 8.95536 30.4891 8.87395 30.4891 8.87395C30.4891 8.87395 30.3263 9.24031 30.2652 9.38278C30.2041 9.52525 30.1431 9.8102 30.1024 9.8102C29.8988 9.62702 29.736 9.40313 29.6139 9.15889C29.2272 8.44653 29.4104 8.14124 29.39 7.57135C29.3289 6.9404 29.1458 6.35015 28.8405 5.80062C28.7183 6.0245 28.5962 6.24839 28.4334 6.45192C28.2502 6.65545 28.0263 6.85898 27.8025 7.04216C27.7617 6.14662 27.6396 5.25108 27.3954 4.37589C27.1919 3.54141 26.8662 2.74764 26.4184 2.03528C26.3167 2.48305 26.1335 2.91047 25.8893 3.29718C25.4415 3.92813 24.1592 5.27144 23.7522 6.14662C23.2433 7.22534 23.7929 8.52795 23.7929 8.52795C23.569 8.42618 23.3858 8.28371 23.2026 8.10053C22.9991 7.85629 22.6735 7.38817 22.6735 7.38817C22.6735 7.75452 22.6531 8.14124 22.5717 8.50759C22.4699 8.97572 22.0832 9.42349 21.9204 9.93232C21.7576 10.4411 21.9 11.5809 21.9 11.5809C21.554 11.4181 21.2284 11.1942 20.9231 10.9296C20.5771 10.5836 20.2718 10.2173 20.0072 9.8102C20.0072 9.8102 19.9054 10.4411 19.8444 10.9907C19.7629 11.8862 19.6815 11.9676 19.6815 11.9676C19.5391 11.988 18.9895 11.5402 18.9081 11.4588C18.9081 11.4588 19.1727 13.0667 19.7222 13.5959C20.1293 13.5552 20.516 13.4941 20.9231 13.4127C20.801 13.0871 20.6585 12.7818 20.4753 12.4968C20.3532 12.2729 20.455 11.4588 20.6585 11.4995C20.7603 11.5199 21.147 12.2729 21.493 12.7818C21.5947 12.9853 21.7169 13.1481 21.8593 13.3313C21.9407 13.3924 22.3071 13.2702 23.4469 13.3109C23.5486 13.2906 23.7725 12.7614 23.4876 12.3747C23.1823 12.0287 22.938 11.6013 22.7956 11.1535C22.5106 10.1562 22.877 9.58631 22.877 9.58631C22.877 9.58631 22.9991 10.6243 23.3248 11.0721C23.6301 11.6216 23.8336 11.6216 24.1592 12.1508C24.4035 12.4968 24.5663 12.9039 24.6477 13.3109L26.7237 13.3313C26.7237 13.3313 26.6423 12.3136 26.8662 11.8048C27.1919 11.1128 27.4157 10.8889 27.6193 10.258C27.8432 9.68808 27.9856 9.09784 28.067 8.48724C28.3723 8.83325 28.5148 9.30137 28.4538 9.74914C28.3316 10.5022 28.1078 10.8279 27.8839 11.357C27.5786 11.9676 27.4361 12.6596 27.4972 13.3517C27.5379 13.4534 28.4334 13.4534 28.4334 13.4534C28.6776 13.0056 29.044 12.6393 29.4714 12.3543C29.8785 12.0694 30.3263 11.8659 30.7944 11.7438C30.713 12.1508 30.5094 12.5375 30.2041 12.8225C29.9192 13.1074 29.5732 13.3313 29.1865 13.4738C29.1865 13.4738 31.751 13.8401 32.2191 13.8401C32.4226 13.5755 32.6058 13.3109 32.7279 13.0056C32.8908 12.6596 32.9518 12.2933 32.8704 11.9473ZM26.6423 9.60667C26.5609 10.7872 25.1972 11.7438 25.1972 11.7438C25.5229 10.8889 25.6857 9.97302 25.7061 9.05713C25.7264 8.36512 25.4211 7.9377 25.3601 7.2864C25.3194 6.65545 25.4618 6.04486 25.7468 5.49532C25.9707 5.12896 26.2149 4.78296 26.4795 4.45731C26.4795 4.45731 26.1946 6.79793 26.3777 7.75453C26.4795 8.46689 26.7237 8.42618 26.6423 9.60667Z" fill="#E20613"/>
<path fill-rule="evenodd" clip-rule="evenodd" d="M24.0575 29.1458C23.9761 32.2802 26.8866 33.0943 26.8866 33.0943C26.8866 33.0943 25.7061 31.6492 24.8512 29.1254C24.5663 29.1051 24.0575 29.1458 24.0575 29.1458Z" fill="#E20613"/>
<path fill-rule="evenodd" clip-rule="evenodd" d="M31.5271 27.3343C31.5271 27.3343 31.6289 26.7033 31.7306 26.683C31.8324 26.6626 32.9722 26.7237 32.8093 27.6599C32.443 27.375 31.9749 27.2732 31.5271 27.3343Z" fill="#E20613"/>
<path fill-rule="evenodd" clip-rule="evenodd" d="M31.405 27.8229C31.5881 27.9246 31.751 28.0467 31.8934 28.1892C32.1784 28.1078 32.4633 28.0467 32.7483 28.006C32.4226 27.6193 31.8527 27.5583 31.405 27.8229Z" fill="#E20613"/>
<path fill-rule="evenodd" clip-rule="evenodd" d="M28.3113 42.9452C28.9015 43.0469 28.8608 43.3319 29.2068 43.4336C29.5935 43.5354 30.2245 43.4337 30.4077 43.8204C30.082 43.9425 29.7564 44.085 29.39 43.9221C29.0236 43.7593 28.9829 43.454 28.6166 43.4336C28.2502 43.4133 27.3954 43.3929 27.2733 43.5354C26.9273 43.9425 27.2936 43.6982 27.7414 43.7186C28.4334 43.7593 28.698 44.2274 28.6776 44.3699C28.6776 44.4717 28.5759 44.3292 28.1688 44.3495C27.7617 44.3699 27.3954 44.5327 27.1308 44.2885C26.8662 44.0442 25.9096 44.0239 25.6654 43.8204C25.5229 43.6982 26.1742 43.5965 26.2149 43.1894C26.276 42.6806 25.8282 42.3142 25.6247 41.9886C25.2176 41.724 24.7698 41.6019 24.5256 41.1337L24.8919 40.9506C25.0955 41.1134 25.299 41.2559 25.5229 41.3983C25.93 41.6019 26.276 41.9275 26.4998 42.3346C26.6627 42.6806 26.9273 43.0062 27.375 43.0266C27.7007 43.0266 28.006 43.0062 28.3113 42.9452Z" fill="#E20613"/>
<path fill-rule="evenodd" clip-rule="evenodd" d="M22.877 42.355C22.8363 42.1312 22.8159 41.9073 22.8363 41.6834C22.877 41.5816 23.1009 41.4799 23.1009 41.4799C23.1009 41.4799 23.1009 42.4975 23.5893 43.0063C23.8132 43.2302 24.0778 43.4338 24.3831 43.5559C24.7902 43.8205 25.2379 44.0444 25.6857 44.2072C25.8689 44.2479 25.9503 44.6142 25.7671 44.6753C25.5432 44.7771 25.2787 44.7567 25.0548 44.6142C24.8716 44.4514 24.5866 44.024 24.2814 43.8001C23.9761 43.5762 23.1823 43.2099 23.1009 43.3727C23.0195 43.5355 23.1009 43.9426 23.3451 43.9629C23.5893 44.0036 23.9557 43.9426 24.0982 44.0851C24.3017 44.2479 24.4238 44.4718 24.4442 44.7364C24.1389 44.5735 23.9353 44.4107 23.7522 44.4311C23.569 44.4514 23.0398 44.5125 22.8566 44.4107C22.5717 44.2275 22.6734 44.024 22.531 43.9426C22.3885 43.8612 21.0859 43.9426 21.0248 43.9019C20.9638 43.8612 21.1063 43.6576 21.1063 43.6576C21.1063 43.6576 22.6734 43.7187 22.6938 43.4541C22.7549 43.1895 22.6734 42.9046 22.4496 42.7214C22.2053 42.4772 22.185 42.0497 22.2664 42.009C22.4699 42.1108 22.877 42.355 22.877 42.355Z" fill="#E20613"/>
<path fill-rule="evenodd" clip-rule="evenodd" d="M11.1535 41.3169C11.0111 41.2966 10.5633 41.5408 10.543 41.4391C10.4412 40.8081 11.3774 39.0374 11.8252 38.2233C12.4154 37.2463 13.1075 36.3304 13.8605 35.4756C14.2676 36.88 15.8551 36.3711 15.8551 36.3711C16.2825 37.6534 17.5241 37.1242 17.5241 37.1242C17.6259 37.4702 17.9719 37.7144 18.3382 37.6737C18.2161 37.9383 17.9515 38.1011 17.6666 38.0808C17.3002 38.1011 16.8117 38.1011 16.6489 37.9994C16.425 37.8569 16.1808 37.5516 15.9162 37.4295C14.8782 36.8189 13.4127 36.6561 13.4127 36.6561L13.2092 37.0631C15.2038 37.226 16.1197 38.2436 16.1197 38.2436C15.8144 38.2843 15.5091 38.3454 15.2242 38.4471C14.8782 38.61 14.5525 38.8135 14.2472 39.0374C14.003 39.2002 13.6977 39.4241 13.5756 39.4241C13.0667 39.3223 12.5579 39.2613 12.0287 39.2206C11.9473 39.2206 11.8048 39.5869 11.8048 39.5869C11.8048 39.5869 12.965 39.709 12.7818 39.7905C12.2119 40.0143 11.6827 40.2993 11.1943 40.6453V40.9099C11.1943 40.9099 12.3951 40.3807 12.7614 40.2586C13.1685 40.1161 13.5756 39.9533 13.9826 39.7498C14.1455 39.648 14.6339 39.3427 14.6543 39.4852C14.7154 39.8922 14.6746 40.3196 14.5118 40.686C14.3897 40.9913 14.2269 41.2559 14.0233 41.5205L14.4304 41.7851C14.8375 41.3373 15.1021 40.7878 15.2445 40.1975C15.3056 39.8922 15.3056 39.5666 15.2649 39.2409C15.2649 39.1392 16.079 38.7321 16.6489 38.5693C17.748 38.2843 18.094 38.4471 18.094 38.4471C18.094 38.4471 16.7914 40.0958 16.4861 40.4621C16.1401 40.8488 15.8348 41.2762 15.5498 41.7037C15.5091 41.8258 15.4277 42.3957 15.8958 42.5992C16.2215 42.7417 16.6082 42.7213 16.9135 42.5381C16.9949 42.9656 17.117 43.1284 17.4223 43.2098C17.7887 43.2912 18.1754 43.1691 18.44 42.8841C18.6639 43.108 18.9895 43.2505 19.3152 43.2709C20.4142 43.3726 20.6381 42.2532 20.6381 42.2532C20.801 42.3957 21.1877 42.8638 21.2691 42.8231C21.4523 42.7417 21.6151 42.5992 21.6965 42.4364C21.7983 42.2125 21.6965 41.7851 21.8186 41.8461C22.0018 41.9479 22.185 42.762 22.1443 42.9859C22.1239 43.1284 22.1646 43.0877 22.0221 43.0877C21.8186 43.0673 21.5947 43.0877 21.3912 43.1284C21.1063 43.1691 20.862 43.2912 20.6381 43.4744C20.6381 43.4744 18.5825 43.6779 18.0329 43.6169C17.4834 43.5558 17.2799 43.4337 16.9135 43.393C16.71 43.3726 15.9162 43.5354 14.9392 43.2709C14.2065 43.0673 13.9216 42.9859 13.3313 42.5992C12.7411 42.2125 12.6393 42.3143 12.4154 42.07C12.1305 41.7851 11.8048 41.5408 11.4385 41.3577C11.3571 41.3577 11.2553 41.3373 11.1535 41.3169Z" fill="#009540"/>
<path fill-rule="evenodd" clip-rule="evenodd" d="M24.5663 25.8893C24.9327 26.1539 25.1158 27.1716 24.7495 27.5786C24.3831 27.9857 24.1592 28.4538 24.5052 28.6166C24.8512 28.7795 24.8716 28.7795 25.1972 28.5759C25.4211 28.4335 25.645 28.2706 25.8485 28.0875L25.4211 27.8229L26.6423 27.1919L26.5202 26.5203L27.2122 26.2353L27.1715 25.6654L28.6369 25.2177L28.1077 24.6885L26.7034 25.1566L25.7468 26.3574L25.299 25.4415L23.0398 24.7902L22.6734 25.1973C22.6531 25.238 24.1999 25.6044 24.5663 25.8893Z" fill="#009540"/>
<path fill-rule="evenodd" clip-rule="evenodd" d="M31.1607 28.3723L31.059 28.7794L31.1404 29.2679L30.2652 29.5324C30.2652 29.5324 30.021 29.2068 30.0413 29.105C30.2041 28.8404 30.4484 28.6369 30.7333 28.5148C31.0793 28.3927 31.1607 28.3723 31.1607 28.3723Z" fill="#009540"/>
<path fill-rule="evenodd" clip-rule="evenodd" d="M29.9395 29.9192C30.021 30.1227 30.1024 30.3263 30.2245 30.5094L30.3873 30.7537L30.4484 30.8147C30.0617 31.6289 29.4511 32.3412 28.6776 32.8093C29.3086 31.9545 29.7564 30.9776 29.9395 29.9192Z" fill="#009540"/>
<path fill-rule="evenodd" clip-rule="evenodd" d="M27.2326 41.8868L27.6396 42.7417C27.6396 42.7417 28.3316 42.7213 28.5148 42.7213C28.698 42.7213 29.1254 42.9248 29.4918 42.9248C29.8581 42.9248 30.1838 42.8027 30.3263 42.8638C30.4687 42.9248 31.0386 43.2708 31.059 43.393C31.0793 43.6779 31.0183 43.9018 31.2625 43.8814C31.5067 43.8611 33.6235 43.8 34.4987 43.6779C38.4879 42.9655 38.6914 42.2735 38.8746 42.2532C39.1595 42.2532 39.4445 42.2939 39.7294 42.3346C39.7294 42.3346 39.648 41.2355 39.4241 40.686C39.2206 40.1772 38.956 39.6887 38.6914 39.2206C38.4268 38.6507 38.1826 38.0604 37.9587 37.4702C37.7959 37.1038 37.572 36.7985 37.287 36.5339C36.6561 37.1649 35.6791 36.941 35.6791 36.941C35.6588 37.8365 34.8243 37.4498 34.8243 37.4498C34.5801 38.1011 33.9695 37.7144 33.9695 37.7144C33.7049 38.5489 32.8908 37.8772 32.8908 37.8772C32.097 38.7524 31.466 38.0401 31.466 38.0401C30.8147 38.7728 30.3873 38.0808 30.3873 38.0808C30.3873 38.0808 29.7564 37.3277 29.675 37.3888C29.5325 37.4905 29.4511 38.1825 30.1227 38.6914C30.713 39.1595 32.3209 39.709 33.3996 39.5666C34.1527 37.9383 37.3278 38.1011 37.3278 38.1011L37.4906 38.3657C33.8067 38.7728 34.3765 40.0347 34.3765 40.0347C35.7402 40.055 35.7199 40.4214 36.2083 40.4214C36.6968 40.4214 36.8393 40.2382 36.9818 40.2382C38.3658 40.1772 38.61 40.5639 38.61 40.5639C37.2463 40.5639 37.226 40.8081 37.226 40.8081C38.7525 41.2559 38.8339 41.9072 38.8339 41.9072C38.4879 41.8461 38.1419 41.724 37.8569 41.5408C36.941 41.0931 35.9437 40.8081 34.9057 40.7063C34.7429 42.2735 35.4349 42.8841 35.4349 42.8841L34.7836 42.8434C34.0916 41.378 34.0305 40.4621 34.0305 40.4621C34.0305 40.4621 33.3385 40.0754 33.1757 40.0754C33.0129 40.0754 31.3236 39.8312 31.3236 39.8312C31.3643 40.2382 31.3236 40.6656 31.1811 41.0523C31.0386 41.4187 31.2422 42.0293 31.2422 42.0293L30.8147 42.0497C30.5705 41.6019 30.4484 41.093 30.5094 40.6046C30.6316 39.8312 30.6723 39.6276 30.6723 39.6276C30.4077 39.5055 30.1634 39.363 29.9395 39.1798C29.6342 38.9153 29.2475 38.5489 29.2475 38.5489C29.2475 38.5489 28.0467 39.6276 27.8228 39.7294C27.8228 39.8719 28.4741 40.7674 28.6776 41.1134C28.8812 41.4594 29.2679 42.0293 29.2679 42.0293L28.1485 41.8258L28.2299 42.3346" fill="#009540"/>
<path fill-rule="evenodd" clip-rule="evenodd" d="M14.6136 60.856L14.7357 60.6932L14.7561 60.7136L14.9189 60.8153L14.9799 60.8357C15.2038 60.9781 15.4481 61.1003 15.672 61.2224L15.8755 61.3242C16.0994 61.4463 16.3233 61.548 16.5471 61.6498L16.6082 61.6905L17.5852 60.3065C12.4969 58.5358 7.0015 55.2793 6.0856 49.4175L1.52649 49.4582C2.54415 55.5031 5.92278 60.0826 13.026 62.9321M33.9084 61.4666C33.6438 61.6091 33.3792 61.7516 33.1146 61.8737L32.9925 61.9348C32.6872 62.0772 32.4023 62.2197 32.097 62.3418L32.0156 62.3825C29.6342 63.4409 27.0697 63.9904 24.4645 64.0108C21.8186 63.9904 19.1931 63.4205 16.771 62.3011L16.71 62.2808C16.4047 62.1383 16.1197 61.9958 15.8144 61.8533L15.6516 61.7719C15.387 61.6294 15.1224 61.487 14.8782 61.3445L12.5376 64.3975C16.8728 66.5346 20.516 67.5319 24.1185 67.5319C27.8025 67.5319 31.4864 66.4735 35.842 64.4992L35.3331 63.7055L33.9084 61.4666ZM42.6399 49.3768C40.8285 55.7067 36.1269 59.0446 30.8758 60.103L32.1784 61.7719C32.443 61.6498 32.7076 61.5277 32.9722 61.4056L33.1146 61.3445C33.3792 61.2224 33.6438 61.0799 33.9084 60.9374L34.1119 60.8357L35.557 63.1152C41.8258 60.795 45.6726 56.8261 47.2805 49.3972L42.6399 49.3768Z" fill="#FFEC00"/>
<path fill-rule="evenodd" clip-rule="evenodd" d="M15.5091 56.5005H34.1323L33.5828 56.8058L15.8958 56.8465" fill="#FFEC00"/>
<path fill-rule="evenodd" clip-rule="evenodd" d="M16.7303 55.1775H32.097L31.6288 55.727L17.056 55.7881" fill="#FFEC00"/>
<path fill-rule="evenodd" clip-rule="evenodd" d="M17.9108 54.5668L20.0479 54.5872C19.2745 54.3633 18.5418 53.9766 17.9312 53.4678M20.1904 52.1448C18.9488 51.9616 19.2541 50.9236 19.4984 50.4148C19.6612 50.0891 21.1266 49.8653 21.9611 49.4785C22.7142 49.1325 24.1796 48.2574 23.9761 48.0945C22.0832 46.9547 21.1877 47.2804 20.1293 47.7282C18.5418 48.3795 17.6666 49.967 18.0736 51.6156C18.7453 54.343 21.208 54.4447 21.9407 54.5058C22.6735 54.5668 24.1185 53.9359 24.1185 53.7324C24.1185 53.5288 21.839 52.389 20.1904 52.1448ZM20.4957 50.4351C20.0682 50.659 20.3939 50.8829 20.4957 50.9236C20.5974 50.9643 25.0751 50.944 25.1769 50.9236C25.2787 50.9033 25.645 50.2316 26.0928 49.8653C26.5609 49.4175 27.1105 49.0511 27.6803 48.7662C27.8839 48.6644 28.0874 48.237 28.0874 47.7892C28.0874 47.2397 26.2149 47.2397 25.4008 47.7892C24.7495 48.4812 24.0168 49.0715 23.223 49.5803C22.9177 49.7431 20.9231 50.2113 20.4957 50.4351ZM26.8662 51.8192C26.3777 51.5139 25.8282 51.3714 25.2583 51.4121C25.1362 51.4121 20.6992 51.4121 20.5974 51.4528C20.4957 51.4935 20.1904 51.6767 20.4957 51.8395C20.9231 52.0634 21.6965 51.7377 23.3044 52.4501C24.0168 52.7758 25.1158 53.366 25.7264 54.2412C27.0901 55.096 28.4741 54.8721 28.4741 54.343C28.5148 53.7934 28.3316 53.2439 27.9653 52.8165C27.6396 52.4094 27.2733 52.0837 26.8662 51.8192ZM26.2556 50.8829C27.4158 50.8829 28.5759 50.7201 29.6953 50.3944C32.3412 49.6007 31.4457 47.3618 31.3643 47.3618L28.7794 47.3822C28.7184 47.5857 28.9422 48.3184 28.5759 48.8476C28.2095 49.3768 27.66 49.4785 27.1308 49.8653C26.7848 50.1502 26.4795 50.4962 26.2556 50.8829ZM31.4457 50.0484C31.3846 50.0484 31.2421 50.2723 30.6723 50.6183C30.1024 50.9643 29.736 50.9236 29.736 50.9847C29.736 51.0457 30.1431 51.1068 30.6316 51.3714C31.12 51.636 31.3032 52.0837 31.3643 52.0837C31.7306 51.8395 31.9545 51.4324 31.9342 50.9847C31.9342 50.598 31.7306 50.252 31.4457 50.0484ZM27.4972 51.4324C27.9856 51.7581 28.4131 52.1855 28.7387 52.674C29.1254 53.2846 29.3086 54.0173 29.2679 54.75L31.3236 54.7297C31.3236 54.7297 31.5882 53.1828 30.6316 52.1041C29.7971 51.1679 27.4972 51.4324 27.4972 51.4324Z" fill="#FFEC00"/>
<path fill-rule="evenodd" clip-rule="evenodd" d="M18.6232 47.0566C18.4603 47.0769 18.4603 47.484 18.3586 47.6875C18.2568 47.8911 18.0329 47.891 17.8498 47.9521C17.6869 48.0132 18.094 48.7662 18.094 48.7662C18.094 48.7662 18.44 48.3185 18.8674 47.7893C19.1931 47.3822 19.9054 47.0769 19.9054 47.0769C19.478 47.0159 19.0506 47.0159 18.6232 47.0566ZM16.8524 46.7513H33.4403V46.3239H16.8524" fill="#FFEC00"/>
<path fill-rule="evenodd" clip-rule="evenodd" d="M11.296 41.8462C11.3978 41.8462 11.642 42.1718 11.988 42.4975C12.2323 42.7621 12.4969 42.986 12.7818 43.1895C12.9243 43.2506 15.8551 43.9629 16.3843 43.9629C16.71 43.9629 19.3355 43.8612 19.7629 43.9426C20.1904 44.024 20.2311 44.2479 20.5567 44.2886C20.8824 44.3293 21.7576 44.1461 22.0629 44.37C22.3682 44.5939 22.4089 44.7974 22.6327 44.8585C22.8159 44.9195 23.0195 44.9602 23.223 44.9399C23.5079 44.9195 23.915 44.8381 24.0575 45.0213C24.2203 45.1841 24.2203 45.4487 24.0371 45.6115C23.9964 45.6522 23.9354 45.6929 23.8539 45.7133C24.3831 45.7947 24.9123 45.4894 25.1158 44.9806C26.1538 44.9602 25.5433 45.754 25.5433 45.754C26.1946 45.7947 26.7644 45.3062 26.8052 44.6549C26.8052 44.6142 26.8052 44.5939 26.8052 44.5532C27.2122 44.8381 27.5582 44.8788 28.1281 44.8788C28.6166 45.4691 28.067 45.754 28.067 45.754C29.2882 45.6726 29.2068 44.6142 29.2068 44.6142C29.4918 44.5735 29.7767 44.5939 30.0413 44.6956C30.2855 44.9806 30.2652 45.408 29.9803 45.6726C29.9395 45.7133 29.8988 45.7337 29.8581 45.754C30.9572 45.6726 31.1811 44.4514 31.1811 44.4514C31.1811 44.4514 33.6031 44.37 34.3358 44.2479C35.3942 44.0443 36.5747 43.8612 36.9207 43.7187C37.5109 43.4744 37.7552 43.2913 38.1826 43.1284C38.61 42.9656 39.0171 42.6807 39.1392 42.7417C39.2613 42.8028 39.6684 43.5355 39.6277 43.678C39.587 43.8205 38.1419 45.2655 37.979 45.3673C37.8162 45.4691 33.9084 45.9779 33.6031 45.9779C33.2978 45.9779 19.1931 46.0186 19.1931 46.0186C19.1931 46.0186 16.9949 46.1 16.6286 46.0186C16.2622 45.9372 13.4942 45.2655 13.311 45.1231C13.1278 44.9806 10.9297 43.5966 10.8075 43.4337C10.6854 43.2709 10.3801 42.2533 10.4208 42.1515C10.4615 42.0497 11.1739 41.8665 11.296 41.8462Z" fill="#FFEC00"/>
<path fill-rule="evenodd" clip-rule="evenodd" d="M23.6708 41.6223C23.6504 41.7037 23.8336 41.5002 24.0575 41.3781C24.1389 41.4188 24.1999 42.3754 24.2407 42.4771C24.2814 42.6196 24.4238 42.7214 24.5663 42.701C24.9123 42.6807 24.9327 42.5178 24.9327 42.3143C24.9327 42.2125 24.9327 42.1108 24.953 42.0294C24.953 42.0294 25.7264 42.6196 25.4415 43.0674C24.9123 43.8815 23.915 42.8231 23.915 42.8231C23.8132 42.6603 23.6708 41.6223 23.6708 41.6223Z" fill="#FFEC00"/>
<path fill-rule="evenodd" clip-rule="evenodd" d="M16.364 42.1718C16.7914 42.4364 16.9949 41.9479 16.9949 41.9479C16.9949 41.9479 17.8294 40.5639 18.2772 39.9533C18.7249 39.3427 19.7426 38.1825 19.7426 38.1825C19.6205 38.1215 19.478 38.0808 19.3559 38.0604C19.2541 38.0604 19.1727 38.1215 19.132 38.1825C19.132 38.1825 17.8294 39.4241 17.4834 39.8922C17.1374 40.3603 15.7534 41.8054 16.364 42.1718Z" fill="#FFEC00"/>
<path fill-rule="evenodd" clip-rule="evenodd" d="M28.1688 36.4932L29.4307 35.9844C29.4307 35.9844 29.2272 37.5109 28.352 38.3657C26.622 40.1975 23.7725 40.9302 23.7725 40.9302L25.0955 39.017L24.4442 38.9153L22.6124 41.3373C22.6124 41.3373 22.6735 41.378 22.4699 41.3169C22.2664 41.2559 21.3709 40.8895 21.3709 40.8895C21.3709 40.8895 21.3301 41.4594 21.2894 41.7036C21.2691 41.8461 21.208 41.9886 21.1266 42.1311C20.862 41.3576 20.4143 41.3373 20.4143 41.3373C20.0683 43.1691 19.0709 42.7824 19.0709 42.7824C18.7453 42.3346 19.1524 41.6629 19.1524 41.6629C19.3355 41.4187 19.478 41.1745 19.6408 40.9302C19.763 40.686 20.0275 39.7904 20.109 39.8312C20.1904 39.8719 20.4346 40.401 20.4346 40.401C20.8213 39.648 21.8593 38.9356 21.8593 38.9356C21.2284 38.7931 20.5567 39.4444 20.5567 39.4444C20.4753 39.2613 20.4957 38.5286 20.4957 38.5286C19.4577 39.5869 18.7046 40.8692 18.2975 42.2939C17.6055 42.7213 17.5852 42.1514 17.5852 42.1514C17.7683 41.3576 19.0099 39.363 19.7222 38.6914C19.7222 38.6914 20.3939 37.8976 20.862 37.6941C21.3098 37.4905 21.839 37.3481 21.6762 37.1649C21.493 37.0021 21.2284 36.941 21.0045 37.0631C20.7806 37.1445 20.109 37.4702 19.8851 37.5109C19.6815 37.5516 18.9692 37.6127 19.0913 37.3481C19.2541 36.9614 19.5594 36.8392 19.8647 36.7375C20.3125 36.595 20.7806 36.5339 21.2487 36.5339C21.8593 36.5136 22.1239 36.5339 22.4496 36.3304C23.3044 35.8216 23.1212 35.1906 23.1212 35.1906C22.877 35.3127 21.6151 35.9844 21.6151 35.9844C21.5337 35.1499 22.4496 34.8243 22.4496 34.8243C22.4496 34.8243 23.6301 34.7225 23.7115 34.4986C23.915 34.1119 23.4469 34.0509 23.4469 34.0509C23.2433 34.1323 23.0602 34.234 22.877 34.3358C22.6124 34.4783 22.0832 34.4579 22.2053 34.173C22.3275 33.888 22.4089 33.6234 22.7345 33.6031L23.0398 33.5827L22.7345 33.2164C22.5717 33.2164 22.4089 33.2774 22.2664 33.3792C22.1239 33.5217 22.0629 33.7252 21.9 33.7659C21.7372 33.8066 21.3302 33.8677 21.2284 33.6234C21.1266 33.4606 21.1877 33.2367 21.3709 33.135C21.3912 33.1146 21.4319 33.1146 21.4726 33.0942C21.7169 32.9925 22.2867 32.9925 22.3275 32.9111C22.3682 32.6668 21.8797 32.4429 21.8797 32.4429C21.6354 32.5651 21.4116 32.6872 21.1877 32.8297C20.9231 32.9925 20.6381 33.0942 20.3328 33.1146C20.2107 33.0942 19.8647 33.0535 19.8647 32.8093C19.8647 32.504 20.4346 32.4837 20.4957 32.4837C20.7399 32.4226 20.9841 32.3615 21.208 32.2598C21.3709 32.1784 21.6558 32.0969 21.6558 32.0562C21.6354 31.9341 21.5744 31.812 21.493 31.7306C21.4523 31.7306 20.801 31.9748 20.6178 32.0155C20.4346 32.0562 19.478 32.4837 19.2948 32.2801C19.1117 32.0969 18.9488 31.7713 19.3559 31.6085C19.6408 31.5067 19.9461 31.4049 20.2311 31.3439C20.4143 31.2625 20.5974 31.2218 20.801 31.2014C21.0045 31.1811 21.0452 31.2218 20.9841 31.0996C20.9231 30.9775 20.9027 30.8554 20.8213 30.8554C20.5364 30.8554 20.2514 30.8961 19.9868 30.9775C19.7426 31.0996 19.478 31.2014 19.2134 31.2828C19.0913 31.2828 18.5418 31.4456 18.3586 31.2625C18.1754 31.0793 17.9922 30.6926 18.3586 30.5501C18.6639 30.4483 18.9692 30.3873 19.2948 30.3873C19.4984 30.3873 19.6815 30.3466 19.8647 30.2448C20.0683 30.143 20.2921 30.0413 20.5364 29.9802C20.5974 29.9802 20.3735 29.5121 20.3328 29.5121C20.2921 29.5121 19.8037 29.8377 19.4984 29.9599C19.0302 30.1227 18.5418 30.2448 18.0533 30.3059C17.809 30.3059 17.3409 30.2448 17.3613 29.9395C17.3816 29.6546 17.5852 29.6139 17.7683 29.6342C17.9515 29.6342 18.6435 29.736 18.9692 29.5732C19.2948 29.4103 20.2107 29.1661 20.2311 29.0847C20.2514 29.0033 20.17 28.698 20.1293 28.698C20.0886 28.698 18.8674 29.1457 18.6028 29.1864C18.1551 29.2475 17.7073 29.2882 17.2595 29.2882C16.8728 29.2678 16.6489 29.3086 16.5879 29.044C16.5064 28.7997 16.6489 28.5351 16.8932 28.4537C16.9135 28.4537 16.9339 28.4334 16.9746 28.4334L19.1727 28.3316C19.5187 28.3113 20.4143 28.3316 20.4143 28.2502C20.4143 28.1688 20.3736 28.0263 20.3125 28.0263C20.2718 28.0263 18.786 27.9449 18.5011 27.9449C18.2161 27.9449 17.1577 28.1281 16.7914 28.0874C16.425 28.0467 16.1197 27.8431 16.1401 27.6192C16.1604 27.3954 16.2622 27.1104 16.5268 27.1104C16.8117 27.1104 18.6435 27.0697 18.6435 27.0086C18.6435 26.9476 18.6028 26.6626 18.5214 26.6016C18.1143 26.4998 17.6869 26.4795 17.2799 26.5202C16.8117 26.5812 16.3436 26.7237 15.9366 26.9476C15.6923 27.1308 15.5906 27.2325 15.4074 27.2529C14.8578 27.2122 14.3287 27.1511 13.7995 27.029C13.311 26.9272 12.0898 26.683 11.6217 26.7441C10.2987 26.7441 10.3801 27.375 10.3801 27.375C9.91201 27.4564 9.42353 27.4564 8.93506 27.375C8.2227 27.1715 7.53069 26.9069 6.85903 26.5812C4.53877 25.7467 3.41934 26.2352 3.21581 26.1742C2.99193 26.2149 2.76804 26.0724 2.68663 25.8485C2.5238 25.4414 2.54416 25.0344 2.97157 24.9733C3.39899 24.9123 4.15206 25.014 5.00689 25.1769C5.86173 25.3397 7.12362 25.9096 7.67316 26.1131C8.2227 26.3166 10.604 26.6219 10.6651 26.5202C10.7261 26.4184 10.7058 26.1335 10.6651 26.1335C10.6244 26.1335 9.30142 26.052 8.5687 25.8282C7.83599 25.6043 6.16702 24.9123 5.57678 24.7494C4.98654 24.5866 3.92817 24.4034 3.64323 24.4238C3.35828 24.4441 2.68663 24.607 2.5238 24.5663C2.36098 24.5256 1.77074 24.5459 1.48579 23.6707C1.20085 22.7955 1.16014 22.4292 1.5672 22.4495C1.97427 22.4699 3.50076 22.9584 3.84676 23.0398C4.17241 23.1212 6.92009 24.1388 7.69351 24.4034C8.46693 24.668 10.3191 25.5839 10.7668 25.6653C11.2146 25.7467 16.2419 26.3777 16.6693 26.2759C16.6693 26.2759 15.8755 25.5025 15.6313 24.9326C15.387 24.3627 15.0614 23.6911 15.1835 23.6707C15.326 23.6504 17.4223 24.7698 20.516 25.4007C23.6097 26.0317 23.7522 25.5432 24.0575 26.3166C24.3628 27.0901 24.0778 27.1104 23.9761 27.3343C23.8743 27.5582 23.2841 28.6776 23.4876 29.4917C23.6911 30.3059 24.6274 32.0969 24.6274 32.0969C24.6274 32.0969 23.4265 31.6492 23.3044 31.5067C23.2026 31.3642 22.4089 30.082 22.3682 29.9395C22.3275 29.797 22.4496 27.6396 22.3478 27.4564C22.1443 27.2122 21.9204 26.9679 21.6762 26.7644C21.554 26.6423 20.3735 26.3166 20.2921 26.2759C20.2107 26.2352 20.0683 26.1742 20.0886 26.2556C20.109 26.337 21.6151 27.9449 21.6151 28.0874C21.6151 28.2298 21.6558 30.5297 21.7169 30.6315C21.7779 30.7333 22.6938 31.7102 22.7956 31.812C22.8973 31.9138 24.0575 32.5651 24.1185 32.5854C24.1796 32.6058 25.3194 32.5244 25.4211 32.6058C25.5229 32.6872 26.3574 33.3181 26.4388 33.3385C26.5202 33.3588 27.6396 33.542 27.5989 33.6641C27.5582 33.7863 27.029 34.8039 27.029 34.8039L24.9327 34.234L26.2353 35.8216L25.2583 37.9587L27.1919 36.941L28.2706 37.9994" fill="#FFEC00"/>
<path fill-rule="evenodd" clip-rule="evenodd" d="M20.2921 35.2517C20.7399 35.903 21.6354 34.4782 21.6354 34.4782C21.6354 34.4782 19.7426 34.4579 20.2921 35.2517ZM21.0045 34.0101C21.0045 34.0101 20.3125 33.6234 19.7426 33.9491C19.1727 34.2747 18.9895 34.4375 19.3355 34.6004C19.6815 34.7632 19.7833 34.6411 20.3532 34.3561C20.9231 34.0508 21.0045 34.0101 21.0045 34.0101ZM17.7887 33.6845C17.9719 34.7225 19.7833 33.3792 19.7833 33.3792C19.7833 33.3792 17.5852 32.5447 17.7887 33.6845ZM18.6842 32.3208C18.6842 32.3208 17.9312 32.0155 17.4427 32.0766C16.9542 32.1376 16.2826 32.1987 16.3029 32.7482C16.3233 33.0739 17.1984 33.0942 17.7887 32.8907C18.1347 32.7889 18.44 32.6058 18.6842 32.3208ZM18.0126 31.6899C18.0126 31.6899 17.8497 31.2421 17.1781 31.1403C16.6693 31.0589 15.2445 30.9571 15.3667 31.7306C15.4888 32.504 16.0994 32.1783 16.6286 31.9748C17.0763 31.812 17.5444 31.7306 18.0126 31.6899ZM17.3613 30.7333C17.3613 30.7333 16.771 29.8988 16.2215 29.8784C15.672 29.8581 14.4711 29.8784 14.4915 30.489C14.5118 31.0589 15.041 30.9572 15.672 30.7943C16.3029 30.6315 17.3613 30.7333 17.3613 30.7333ZM15.9976 29.3696C16.364 29.0847 15.6516 28.5962 14.3083 28.759C13.8402 28.8201 13.3517 28.8201 12.8632 28.759C12.8632 28.759 12.8836 29.1864 13.4535 29.451C14.0233 29.7156 15.2038 29.9802 15.9976 29.3696ZM15.2649 28.3723C15.2649 28.3723 15.6516 28.0466 15.4074 27.7821C15.1631 27.5175 13.6773 27.5378 13.1278 27.375C12.3544 27.1511 10.9093 27.0086 11.1535 27.5378C11.3774 28.8811 15.2649 28.3723 15.2649 28.3723Z" fill="#FFEC00"/>
<path fill-rule="evenodd" clip-rule="evenodd" d="M9.01646 28.7387C10.2784 29.0237 11.988 28.9015 11.988 28.9015C11.642 28.3723 11.1128 28.006 10.4819 27.8839C9.48459 27.721 9.19964 27.9449 8.38552 27.7414C7.48998 27.5379 5.55642 26.5609 5.00689 26.5609C4.09099 26.5609 3.31757 26.5813 3.54146 27.8025C3.76534 29.0236 5.35289 28.9015 6.28914 28.6776C6.87938 28.5352 8.58905 28.6573 9.01646 28.7387Z" fill="#FFEC00"/>
<path fill-rule="evenodd" clip-rule="evenodd" d="M12.1916 30.3669C12.5579 30.4076 13.311 30.5297 13.311 30.5297C13.311 30.5297 12.9446 30.1837 12.619 29.8174C12.4562 29.6342 12.3137 29.4307 12.1916 29.2068C12.1916 29.2068 12.1101 29.2475 10.4819 29.1864C8.85364 29.1254 8.58905 28.8404 7.0015 28.8608C6.43161 28.8608 6.20772 29.0643 5.96349 29.6749C5.71925 30.2855 6.71655 30.6926 7.20503 30.7943C7.85633 30.8961 8.52799 30.835 9.15894 30.6111C9.85095 30.3873 11.8049 30.3059 12.1916 30.3669Z" fill="#FFEC00"/>
<path fill-rule="evenodd" clip-rule="evenodd" d="M12.5579 31.9545C13.026 31.8934 14.5525 31.8731 14.5525 31.8731L13.6977 31.0386C13.6977 31.0386 11.0925 30.6519 10.3801 30.7536C9.36246 30.9165 8.71116 31.2828 9.19964 31.9952C9.50494 32.4633 10.4412 32.7075 11.1739 32.4022C11.7641 32.1784 12.0694 32.0155 12.5579 31.9545Z" fill="#FFEC00"/>
<path fill-rule="evenodd" clip-rule="evenodd" d="M15.5905 32.9518L15.0206 32.3208C15.0206 32.3208 13.7384 32.158 13.0667 32.2598C12.273 32.3819 11.3164 32.6668 11.1535 33.0332C10.9297 33.5013 11.3978 34.1933 12.1712 33.888C12.8632 33.6031 12.7614 33.5013 13.657 33.2571C14.2879 33.0943 14.9392 32.9925 15.5905 32.9518Z" fill="#FFEC00"/>
<path fill-rule="evenodd" clip-rule="evenodd" d="M17.1781 34.0305L16.2011 33.3588C16.2011 33.3588 14.8782 33.2774 14.1048 33.5827C13.3313 33.888 12.8429 34.4579 13.372 34.865C13.6773 35.0889 14.0844 35.1296 14.4304 34.926C14.8375 34.6411 15.3056 34.4172 15.7941 34.2951C16.2418 34.173 16.71 34.0916 17.1781 34.0305Z" fill="#FFEC00"/>
<path fill-rule="evenodd" clip-rule="evenodd" d="M17.8701 34.4376C17.3002 34.4987 16.7507 34.6208 16.2011 34.7633C15.4888 34.9668 15.1835 35.0075 15.0817 35.0889C14.9799 35.1703 14.5118 35.5367 14.8985 35.9438C15.2852 36.3508 15.8144 35.9234 16.1401 35.7809C16.4657 35.6385 18.3993 34.7633 18.4196 34.7022C18.44 34.6412 17.8701 34.4376 17.8701 34.4376Z" fill="#FFEC00"/>
<path fill-rule="evenodd" clip-rule="evenodd" d="M19.5187 35.3127C19.5594 35.1703 18.9285 35.0074 18.9285 35.0074C18.6639 35.1499 18.3993 35.2924 18.1347 35.3942C17.1577 35.7198 16.4047 35.903 16.5064 36.3711C16.6286 36.9003 17.117 37.1445 17.5037 36.6968C17.9108 36.2286 18.0533 36.0455 18.3179 35.9437C18.6028 35.8419 19.478 35.4552 19.5187 35.3127Z" fill="#FFEC00"/>
<path fill-rule="evenodd" clip-rule="evenodd" d="M20.2921 35.7606C20.0682 35.7199 19.132 35.7199 18.7046 36.2898C18.2365 36.9004 18.3586 37.0836 18.4603 37.0632C18.6232 37.0225 18.9895 36.6561 19.2541 36.473C19.7426 36.127 20.801 36.0455 20.801 36.0455C20.6585 35.9234 20.4957 35.8217 20.2921 35.7606Z" fill="#FFEC00"/>
<path fill-rule="evenodd" clip-rule="evenodd" d="M31.2218 25.8485C30.9572 25.7264 30.6723 25.8282 30.5094 25.8078C30.2041 25.7468 29.9192 25.5432 29.7767 25.2583C29.7767 25.2583 29.5732 25.5839 29.39 25.6247C29.0644 25.7061 27.721 26.0317 27.721 26.0317L27.7618 26.4795L27.1512 26.8051L27.314 27.2529L26.4795 27.721L26.683 28.1281C26.683 28.1281 25.6654 28.7387 25.6654 29.1051C25.6654 29.4714 27.7414 32.8907 27.7414 32.8907C27.7414 32.8907 29.2882 31.0997 29.3086 30.0413C29.329 28.9829 29.4511 28.1892 30.0413 28.067C30.6316 27.9449 30.774 28.006 30.774 28.006C30.7537 27.314 30.8554 26.8255 31.3643 26.276C31.3439 26.2963 31.5067 25.991 31.2218 25.8485ZM29.6953 26.683C29.4307 26.7034 29.3289 26.8866 29.1458 26.9476C28.9626 27.0087 29.0847 26.7034 28.9829 26.683C28.9829 26.683 28.5759 26.7441 27.6803 27.4157C27.6803 27.4157 28.0467 25.8078 30.1227 26.2149C30.3263 26.2353 30.5298 26.7848 30.5298 26.7848C30.2652 26.7237 29.9803 26.7034 29.6953 26.683Z" fill="#FFEC00"/>
<path fill-rule="evenodd" clip-rule="evenodd" d="M25.3397 40.8285L25.5229 41.0931C25.5229 41.0931 25.7671 40.9507 25.8282 40.971C25.8893 40.9914 26.7848 41.5409 27.1512 41.5409C27.5175 41.5409 28.0263 41.4798 28.0263 41.4798C27.9246 41.2356 27.7821 41.0117 27.6193 40.8082C27.4361 40.6454 27.0087 40.1162 26.9273 40.0958C26.0928 40.5232 25.3397 40.8285 25.3397 40.8285Z" fill="#FFEC00"/>
<path fill-rule="evenodd" clip-rule="evenodd" d="M29.2679 35.5978L28.1281 35.2721L27.8839 33.7253C28.8608 33.1757 30.9368 33.0536 30.9368 33.0536L32.7279 31.9749C32.7279 31.9749 33.2164 30.4891 33.5217 29.7768C33.827 29.0644 34.7429 28.1485 35.3331 27.9246C36.1473 27.4768 37.1039 27.2733 38.0401 27.3547C38.6507 28.2299 37.5923 28.4538 37.5923 28.4538C37.5923 28.4538 35.8827 28.2706 35.7198 28.2706C35.6384 28.2706 35.3128 28.5556 35.4145 28.5963C35.7198 28.6777 36.0455 28.7387 36.3711 28.7794C36.6357 28.7998 37.2056 28.7794 37.2056 29.0033C37.3481 29.2883 36.1473 29.2476 35.7198 29.2476C35.5774 29.2476 34.6208 29.1662 34.6208 29.1662C34.5394 29.2883 34.4783 29.4104 34.4376 29.5325C34.4376 29.5936 36.0862 29.675 36.2897 29.7768C36.534 29.8785 36.6154 30.3059 36.249 30.3874C35.8827 30.4688 35.496 30.4891 35.1296 30.4077C34.4172 30.3059 34.2544 30.0413 34.1323 30.0617C34.0102 30.0821 33.9491 30.4281 34.0509 30.5705C34.2341 30.8148 35.6995 30.8351 35.8216 30.8351C35.9437 30.8351 36.249 31.1201 36.188 31.2422C36.1269 31.3643 35.9437 31.3847 35.557 31.3847C35.211 31.3847 34.8854 31.3643 34.5597 31.2829C34.2951 31.1608 34.0509 31.0387 33.8066 30.8962C33.8066 30.8962 33.5421 31.1811 33.5828 31.2218C33.827 31.4457 34.1323 31.5882 34.4579 31.69C34.7022 31.7103 34.9464 31.751 35.1907 31.8121C35.2517 31.8528 35.4553 32.1988 35.2721 32.2598C35.0889 32.3209 34.865 32.3616 34.4172 32.2395C33.9695 32.1174 33.6235 31.9138 33.5217 31.9138C33.4199 31.9138 33.3385 32.1988 33.4199 32.2598C33.6642 32.5041 33.9695 32.728 34.2951 32.8704C34.2137 33.0333 34.0712 33.135 33.9084 33.1757C33.6235 33.2368 33.1553 33.2979 32.9518 33.0536C32.7483 32.8094 32.7076 32.6873 32.6465 32.6873C32.5447 32.728 32.443 32.7687 32.3616 32.8501C32.3819 32.8704 32.6872 32.8908 32.7686 33.0943C32.85 33.2979 32.9722 33.5421 32.8704 33.6439C32.6872 33.7863 32.443 33.8474 32.2191 33.8067C31.5067 33.6642 31.466 33.1757 31.3846 33.1757C31.3846 33.1757 31.1607 33.2164 31.2218 33.3589C31.3032 33.5828 31.466 33.766 31.6492 33.9085C31.8934 34.0713 32.1784 34.0713 32.1173 34.1934C32.0563 34.3155 31.9545 34.4783 31.7917 34.4173C31.12 34.1934 30.9572 33.8067 30.9572 33.8067C30.9572 33.8067 30.8758 33.9695 30.9165 34.0713C30.9572 34.173 31.2421 34.519 31.8934 34.8243C32.5447 35.1296 33.2164 35.1907 33.0739 35.5367C32.9722 35.8013 32.8907 35.8624 32.6669 35.8013C32.443 35.7402 31.6289 35.15 31.3236 34.9261C31.0386 34.7022 30.7333 34.4987 30.4077 34.3359C30.3262 34.3359 30.1024 34.8243 30.4077 35.0279C30.713 35.2314 31.1404 35.15 31.2625 35.1907C31.5474 35.2721 31.6899 35.5774 31.6085 35.842C31.5881 35.9031 31.5678 35.9438 31.5271 35.9845C31.5271 35.9845 30.9775 35.5367 30.9165 35.5571C30.8554 35.5774 30.9572 35.9641 30.6519 35.9845C30.3466 36.0048 29.8988 35.9234 29.8378 35.5978C29.7767 35.2721 29.8785 34.6819 29.8174 34.458C29.7564 34.2341 29.5325 33.6642 29.5325 33.6642C29.5325 33.6642 29.4104 34.3562 29.39 34.7226C29.3696 35.0889 29.2679 35.5978 29.2679 35.5978Z" fill="#FFEC00"/>
<path fill-rule="evenodd" clip-rule="evenodd" d="M32.5855 30.7741C31.6492 32.9112 29.3697 32.9112 29.3697 32.9112C29.3697 32.9112 31.0793 31.0794 30.9369 30.7741C30.8554 30.5909 30.4687 30.4484 30.774 29.8378C31.3439 29.8582 31.9138 29.8378 31.9138 29.4918C31.9138 28.9626 31.7103 28.7184 31.8324 28.637C32.2395 28.3928 32.7483 28.3317 33.2164 28.4335C33.3182 27.9246 33.3182 27.4158 33.2164 26.907C34.2137 26.4999 36.2287 25.3601 36.2287 25.3601L36.0251 26.6017C38.3454 26.3371 40.625 25.8893 42.8842 25.2584C47.5043 23.9354 49.0308 22.5514 49.0308 22.5514C49.1326 23.8743 48.2167 25.2787 46.3442 25.7265C44.4717 26.1946 43.4541 26.3981 42.9656 26.4388C42.5382 26.4592 42.1718 25.9911 41.7647 25.9911C41.3577 25.9911 37.2056 26.8663 35.9234 27.3751C34.6411 27.8839 33.3589 28.4538 33.0332 29.5325C32.8908 29.96 32.7483 30.367 32.5855 30.7741Z" fill="#FFEC00"/>
<path fill-rule="evenodd" clip-rule="evenodd" d="M38.9967 27.6396C38.9967 27.6396 40.4621 27.6193 41.1338 27.375C41.8054 27.1308 41.6223 26.5406 41.1745 26.4591C40.8692 26.4184 38.7118 26.9273 38.7118 26.9273C38.7118 26.9273 39.0985 27.1105 38.9967 27.6396ZM40.5843 28.7591C41.378 28.5352 41.1134 28.1078 40.7674 27.9246C40.5436 27.8228 38.8542 28.006 38.8542 28.006C38.6914 28.3113 38.4675 28.5759 38.2233 28.8201C38.2233 28.8201 39.7701 28.9829 40.5843 28.7591ZM40.0958 29.8785C40.5435 29.8378 40.6046 29.4511 40.4011 29.2475C40.2383 29.0847 38.0198 29.2475 38.0198 29.2475C37.8773 29.4918 37.6738 29.7157 37.4499 29.8988C37.4499 29.8988 39.648 29.9192 40.0958 29.8785ZM39.1188 31.0386C39.3224 31.0183 39.5666 30.6723 39.6073 30.3873C39.648 30.1024 37.1649 30.2245 37.1649 30.2245C37.0224 30.4687 36.8189 30.6926 36.595 30.8961C37.4295 31.0386 38.2843 31.0997 39.1188 31.0386ZM38.3454 31.6492C38.4675 31.3032 37.8773 31.3236 37.4906 31.3643C37.2463 31.3846 37.0021 31.3439 36.7579 31.2625C36.595 31.4457 36.4119 31.6085 36.188 31.7306C36.188 31.7306 37.1446 32.0156 37.4906 32.0563C37.8569 32.1173 38.2233 31.9952 38.3454 31.6492ZM37.0835 32.9722C37.4906 32.9315 37.572 32.7686 37.5313 32.504C37.4906 32.2395 35.9844 31.9545 35.9844 31.9545C36.0455 32.2191 35.903 32.4837 35.6384 32.5855C35.6384 32.6058 36.4729 33.0536 37.0835 32.9722ZM36.4526 33.5217C36.595 33.1757 35.0482 32.7076 35.0482 32.7076C35.0482 32.7076 35.1296 33.2571 34.6411 33.3589C34.6411 33.3589 35.496 33.7456 35.6995 33.8474C35.9844 33.9695 36.3304 33.827 36.4526 33.5217ZM35.2517 34.3562C35.4349 34.0509 34.1527 33.6438 34.1527 33.6438C33.8474 33.7456 33.5624 33.9084 33.3182 34.1323C33.6845 34.3155 34.0712 34.4579 34.458 34.5801C34.8447 34.6615 35.0685 34.6615 35.2517 34.3562ZM34.2341 35.211C34.4376 34.6004 33.0129 34.2951 33.0129 34.2951C32.8093 34.4376 32.5855 34.519 32.3412 34.5801C32.3412 34.5801 32.9722 34.9464 33.3589 35.1907C33.8066 35.4756 34.0509 35.7198 34.2341 35.211ZM30.0006 36.3304C30.0006 36.595 29.8988 36.8596 29.7564 37.0835C30.021 37.2463 30.2652 37.4499 30.4687 37.6941C30.6926 38.0198 30.7944 37.8569 30.9165 37.572C31.0386 37.287 30.0006 36.3304 30.0006 36.3304ZM31.6085 36.534C31.3236 36.6154 31.0386 36.6357 30.7537 36.5747C30.7537 36.5747 31.405 37.4295 31.6696 37.6941C31.8731 37.8976 32.1784 37.7348 32.3005 37.4499C32.4226 37.1649 31.6085 36.534 31.6085 36.534ZM32.0359 36.4729C32.0359 36.4729 32.443 36.9817 32.6669 37.3074C32.8093 37.5516 33.135 37.633 33.3589 37.4906C33.3996 37.4702 33.4403 37.4295 33.481 37.3888C33.6031 37.2667 32.789 36.3304 32.789 36.3304C32.5855 36.4933 32.3005 36.5543 32.0359 36.4729ZM33.9695 36.0659C33.8066 36.249 33.5828 36.3508 33.3385 36.3508C33.5624 36.6154 33.8066 36.8596 34.0712 37.0835C34.4376 37.3685 34.7836 37.0428 34.8854 36.8189C34.9871 36.595 33.9491 36.0659 33.9695 36.0659ZM34.9261 35.2721C34.8243 35.5774 34.5597 35.7809 34.2341 35.8216C34.6818 36.249 35.2517 36.534 35.8827 36.6357C36.3304 36.6968 36.4119 36.3508 36.3711 36.0659C36.3304 35.7809 34.9261 35.2924 34.9261 35.2721ZM37.226 34.9668C36.7986 34.8447 36.3711 34.7022 35.9641 34.5394C35.9641 34.5394 35.9234 35.1296 35.3942 35.2314C35.3942 35.2314 36.5543 35.6791 37.1446 35.903C37.7348 36.1269 38.0605 36.2083 38.3251 35.7606C38.5896 35.3128 37.9587 35.1703 37.226 34.9668ZM36.7986 33.6235C36.595 33.9084 36.3304 34.1119 36.0251 34.2748C36.0251 34.2748 37.4499 34.7429 38.3861 34.9464C39.3224 35.15 39.4038 34.9871 39.4852 34.5394C39.5462 34.0305 36.7986 33.6235 36.7986 33.6235ZM39.9533 33.1146C39.4445 33.0332 38.1419 32.7483 38.1419 32.7483C38.1419 32.7483 38.0808 33.0129 37.5109 33.2164C37.5109 33.2164 38.9153 33.7252 39.7701 33.9898C40.625 34.2544 40.8285 34.0305 40.9506 33.7049C41.0727 33.3792 40.4825 33.1961 39.9533 33.1146ZM41.6223 31.8527C41.4594 31.7917 39.1799 31.8324 39.1799 31.8324C38.956 32.097 38.6711 32.3005 38.3658 32.4633C38.4675 32.4837 40.3604 32.7279 40.9913 32.8093C41.6223 32.8908 41.7037 32.6058 41.8258 32.4226C41.8869 32.2191 41.8258 31.9749 41.6223 31.8527ZM40.2179 30.6519C40.1161 30.9979 39.8923 31.2829 39.5666 31.4457C39.5666 31.4457 42.0293 31.5474 42.701 31.4253C43.3726 31.3032 43.3116 30.8351 43.2505 30.713C43.2098 30.6112 40.2179 30.6519 40.2179 30.6519ZM41.3577 29.3493C41.3577 29.3493 41.2356 29.9802 40.8081 30.2448C40.8081 30.2448 43.4134 30.367 43.7187 30.3466C44.0239 30.3263 44.4514 29.6953 44.431 29.4307C44.4107 29.1661 41.3577 29.3493 41.3577 29.3493ZM42.3957 28.1281C41.7444 28.1892 41.6833 28.6369 41.7647 28.8405C41.8462 29.044 44.085 28.9829 44.4921 28.9626C44.8991 28.9829 45.2451 28.698 45.3469 28.3113C45.469 27.9042 42.6806 28.1078 42.3957 28.1281ZM46.2424 26.2556C45.8557 26.2556 44.4921 26.3981 42.7213 26.9476C42.2939 27.0697 41.9072 27.2529 41.9072 27.4565C41.8869 27.8432 42.6806 27.8635 44.4107 27.7821C46.1407 27.7007 46.4256 27.2326 46.6292 26.6423C46.7106 26.3777 46.6292 26.2556 46.2424 26.2556Z" fill="#FFEC00"/>
<path fill-rule="evenodd" clip-rule="evenodd" d="M33.9084 61.4666C33.3385 61.7719 32.7686 62.0568 32.1784 62.3011L31.9952 62.3825L29.9803 59.7773L30.367 59.6958C35.6995 58.7189 40.4214 55.4827 42.1922 49.0715L42.2329 48.8883H47.7893L47.7282 49.1732C46.1407 56.9889 42.0497 61.2427 35.4553 63.6037L35.2721 63.6647M35.5367 63.0948C41.8055 60.7746 45.6522 56.8057 47.2601 49.3768H42.6603C40.8489 55.7066 36.1473 59.0445 30.8961 60.1029L32.1988 61.7719C32.7686 61.5073 33.3385 61.2223 33.9084 60.917L34.1119 60.8153L35.5367 63.0948ZM42.4568 49.3768V49.1325V49.3768Z" fill="#1D1D1B"/>
<path fill-rule="evenodd" clip-rule="evenodd" d="M13.026 63.4409C5.55643 60.5304 1.99462 55.6252 0.99731 49.2547L0.956604 48.9697L6.51302 48.9087L6.53338 49.1122C7.3068 54.8925 12.8632 58.1694 18.0533 59.9198L18.3586 60.0215L16.771 62.2604L16.5879 62.179C16.018 61.9144 15.4277 61.6091 14.8578 61.2834L13.1889 63.4816M13.026 62.9117L14.6136 60.856L14.7357 60.6932L14.9189 60.795C15.4888 61.1206 16.0383 61.4055 16.6082 61.6701L17.5852 60.2861C12.4969 58.5154 7.0015 55.2589 6.08561 49.3972L1.52649 49.4379C2.54415 55.5031 5.90243 60.0826 13.026 62.9117Z" fill="#1D1D1B"/>
<path fill-rule="evenodd" clip-rule="evenodd" d="M12.0491 64.6825L11.7845 64.5604L14.5932 60.8764L14.7154 60.7136L14.8985 60.8154C18.094 62.6675 21.2894 63.5427 24.4238 63.5427C27.6193 63.5427 30.7537 62.6472 33.8474 60.9579L34.0509 60.8561L36.5136 64.7232L36.2694 64.8453C31.7713 66.9213 27.9449 68.0408 24.0982 68.0408C20.3328 68.0001 16.5471 66.9417 12.0491 64.6825ZM24.1185 67.5116C27.8025 67.5116 31.4864 66.4532 35.842 64.479L33.9288 61.4667C30.8554 63.1153 27.6803 64.0108 24.4849 64.0108C21.3098 64.0108 18.094 63.156 14.8985 61.3242L12.5579 64.3772C16.8728 66.5143 20.4957 67.5116 24.1185 67.5116Z" fill="#1D1D1B"/>
<path fill-rule="evenodd" clip-rule="evenodd" d="M14.7357 60.6933L18.0533 59.9402L18.3586 60.042L18.1347 60.388L15.3463 61.0393" fill="#1D1D1B"/>
<path fill-rule="evenodd" clip-rule="evenodd" d="M30.0006 59.7773L33.5828 61.1002L34.0916 60.8356L30.6926 59.6552" fill="#1D1D1B"/>
<path fill-rule="evenodd" clip-rule="evenodd" d="M28.9829 26.6627C29.0847 26.683 28.9626 26.9883 29.1458 26.9273C29.3289 26.8662 29.4307 26.683 29.6953 26.6627C29.9802 26.6627 30.2652 26.683 30.5501 26.7441C30.5501 26.7441 30.3466 26.1945 30.1431 26.1742C28.067 25.7671 27.7007 27.375 27.7007 27.375C28.5962 26.7237 29.0033 26.6627 28.9829 26.6627Z" fill="#1D1D1B"/>
<path fill-rule="evenodd" clip-rule="evenodd" d="M25.4211 20.1293C25.8078 20.1293 26.1335 19.8037 26.1335 19.4169C26.1335 19.0302 25.8078 18.7046 25.4211 18.7046C25.0344 18.7046 24.7088 19.0302 24.7088 19.4169C24.7088 19.8037 25.0344 20.1293 25.4211 20.1293ZM25.4211 19.0709C25.6043 19.0709 25.7671 19.2338 25.7671 19.4169C25.7671 19.6001 25.6043 19.7629 25.4211 19.7629C25.238 19.7629 25.0751 19.6001 25.0751 19.4169C25.0751 19.2134 25.238 19.0709 25.4211 19.0709ZM49.4175 21.5133C46.2017 24.1389 40.4621 25.584 36.941 25.8893C36.941 25.8893 37.287 24.2203 37.1039 23.4265C37.1039 23.4265 36.8596 23.8132 35.6791 24.8309C34.8243 25.584 34.0916 25.7671 33.7659 25.8282C33.0536 25.0344 32.3412 24.2813 31.6696 23.5893C33.5624 22.5513 34.7632 21.0248 34.7632 19.3152C34.7632 17.9108 33.9695 16.6489 32.6262 15.6516H32.7076C32.5651 15.5905 33.6438 14.349 33.6438 14.349C33.7863 14.1862 33.1146 14.1455 33.0129 13.9419C35.2517 11.7438 33.9288 9.70847 33.9288 9.70847C33.4199 10.7668 32.9111 11.0111 32.9111 11.0111C33.4199 9.01646 32.3819 8.12092 32.3819 8.12092C31.9952 9.34211 31.1404 9.58635 31.1404 9.58635C31.1404 9.58635 30.713 8.32445 31.0793 6.37055C30.6315 6.55373 30.2652 7.22538 30.2652 7.22538C29.7157 6.14666 29.3697 4.96618 29.2068 3.76534C29.044 3.8264 28.5962 4.41664 28.3927 4.76265C28.2502 4.29452 28.1485 3.8264 28.067 3.33792C27.9246 2.5645 27.5786 1.83179 27.0697 1.22119C26.622 0.630949 25.9707 0.203532 25.2583 0C25.4415 0.50883 25.5025 1.07872 25.4415 1.6079C25.299 2.42203 23.7929 4.23347 23.4062 4.82371C23.0195 5.41395 23.0602 6.51302 23.0602 6.51302C22.6124 6.16702 22.0221 5.27148 22.0221 5.27148C22.0629 6.57408 21.6558 9.62706 21.3912 10.258C20.516 9.74918 19.8444 8.14127 19.8444 8.14127C18.786 9.21999 19.2338 11.0314 19.2338 11.0314C18.0329 10.3801 17.9515 9.34211 17.9515 9.34211C17.4427 11.642 18.501 12.9039 18.7453 13.5145C18.3993 13.6163 18.0329 13.6773 17.6666 13.6977C17.402 13.6977 18.8063 14.7357 18.847 14.9799C19.0099 15.0003 19.0709 15.326 19.2134 15.387C17.6666 16.4047 16.71 17.7887 16.71 19.3152C16.71 20.9434 17.7887 22.4089 19.5391 23.4469C19.2134 23.7522 18.8878 24.0575 18.5825 24.3628C17.7276 23.9557 14.2269 21.9407 14.2269 21.9407C14.0233 24.6274 15.0614 25.4822 15.0614 25.4822C12.9853 26.2353 0.529183 21.2284 0.529183 21.2284C0.0203536 24.4238 1.42472 25.1158 1.42472 25.1158C1.16013 26.5406 2.15744 26.6016 2.15744 26.6016C2.13709 27.4768 2.97157 27.721 2.97157 27.721C3.03263 29.4104 4.84406 29.4714 4.84406 29.4714C5.53607 31.8527 8.05986 31.4253 8.05986 31.4253C8.54834 33.1146 10.3598 32.9315 10.3598 32.9315L10.5022 33.4606C6.45196 39.2002 6.75726 41.9683 6.75726 42.4567C6.79796 48.3999 10.6854 51.0458 16.9949 52.0431C16.9949 52.0431 17.5852 52.0635 17.8905 53.0608H17.1781V54.6076H15.2445L15.9162 55.727H13.7588L14.5729 57.1517H34.7225L35.5367 55.727H33.0129L33.6845 54.6076H31.812V53.0811H31.7306C31.8324 52.6944 32.0359 52.2263 32.4226 52.1042L32.5651 52.0838C32.5855 52.0838 32.5855 52.0838 32.6058 52.0838C32.6669 52.0838 32.7279 52.0838 32.789 52.0431C39.0985 51.0051 42.8638 48.2778 42.9859 42.2329C43.0266 39.9533 42.0293 37.3481 40.5232 34.7022C40.971 34.6004 41.7851 34.2951 41.7851 33.4606C41.7851 33.4606 43.0266 33.3385 42.6399 32.2191C43.3319 32.1987 43.8815 31.6696 43.9425 30.9979C43.9425 30.9979 44.9602 30.7944 45.0009 29.5732C45.0009 29.5732 46.0186 29.6139 46.161 27.8228C46.161 27.8228 47.4636 27.8228 47.199 26.0521C47.199 26.0521 50.5777 24.9937 49.4379 21.493M33.4403 26.1335C33.4403 26.1335 33.2978 26.5813 32.6465 26.5202C31.8731 26.4388 31.8324 25.93 31.812 25.7264C31.7917 25.5229 31.4864 25.5432 31.1811 25.3601C30.9776 25.1972 30.8147 24.9937 30.713 24.7698L30.3466 25.1769L29.8988 24.3017C29.8988 24.3017 29.8174 24.4849 29.6342 24.8512C29.4307 25.2583 29.2272 25.1565 29.2272 25.1565L25.9707 21.4523L27.4972 19.8036L33.4403 26.1335ZM31.5271 27.3343C31.5271 27.3343 31.6289 26.7034 31.7306 26.683C31.8324 26.6627 32.9722 26.7237 32.8093 27.66C32.443 27.375 31.9749 27.2733 31.5271 27.3343ZM32.7483 28.006C32.4633 28.0467 32.158 28.1077 31.8934 28.1892C31.751 28.0263 31.5882 27.9042 31.405 27.8228C31.8324 27.5582 32.4023 27.6193 32.7483 28.006ZM31.1404 29.2679L30.2448 29.5528C30.2448 29.5528 30.0006 29.2272 30.021 29.1254C30.1838 28.8608 30.428 28.6573 30.713 28.5352C31.0793 28.3927 31.1607 28.3723 31.1607 28.3723L31.059 28.7794L31.1404 29.2679ZM38.7118 26.9273C38.7118 26.9273 40.8692 26.4184 41.1745 26.4591C41.6223 26.5202 41.8054 27.1308 41.1338 27.375C40.4621 27.6193 38.9967 27.6396 38.9967 27.6396C39.0985 27.1104 38.7118 26.9273 38.7118 26.9273ZM38.8339 28.006C38.8339 28.006 40.5232 27.8228 40.7471 27.9246C41.0931 28.1078 41.3577 28.5352 40.5639 28.7591C39.7701 28.9829 38.2029 28.8201 38.2029 28.8201C38.4472 28.5759 38.6711 28.3113 38.8339 28.006ZM40.4011 29.2679C40.6046 29.4714 40.5232 29.8581 40.0958 29.8988C39.6684 29.9395 37.4499 29.9192 37.4499 29.9192C37.6737 29.736 37.8569 29.5121 38.0198 29.2679C37.9994 29.2475 40.2383 29.1051 40.4011 29.2679ZM14.3083 28.7591C15.6516 28.5962 16.364 29.0847 15.9976 29.3697C15.2038 29.9802 14.0233 29.6749 13.4535 29.4307C12.8836 29.1865 12.8632 28.7387 12.8632 28.7387C13.3313 28.8201 13.8198 28.8201 14.3083 28.7591ZM11.1535 27.5582C10.9093 27.029 12.3544 27.1715 13.1278 27.3954C13.6977 27.5582 15.1631 27.5379 15.4074 27.8025C15.6516 28.067 15.2649 28.3927 15.2649 28.3927C15.2649 28.3927 11.3774 28.8812 11.1535 27.5582ZM16.2418 29.8785C16.7914 29.8988 17.3816 30.7333 17.3816 30.7333C17.3816 30.7333 16.2825 30.6315 15.672 30.7944C15.0614 30.9572 14.5322 31.059 14.5118 30.4891C14.4915 29.8785 15.6923 29.8581 16.2418 29.8785ZM18.7249 36.3101C19.1523 35.7402 20.1089 35.7402 20.3125 35.7809C20.4957 35.842 20.6788 35.9437 20.8213 36.0862C20.8213 36.0862 19.7629 36.1676 19.2745 36.5136C19.0099 36.6968 18.6639 37.0835 18.4807 37.1039C18.3789 37.1039 18.2568 36.9207 18.7249 36.3101ZM19.132 38.2029C19.1931 38.1215 19.2745 38.0808 19.3559 38.0808C19.4984 38.1012 19.6205 38.1419 19.7426 38.2029C19.7426 38.2029 18.7453 39.3427 18.2772 39.9737C17.809 40.5843 16.9746 41.9479 16.9746 41.9479C16.9746 41.9479 16.7914 42.4364 16.3436 42.1718C15.733 41.8054 17.117 40.3604 17.4427 39.9126C17.7683 39.4648 19.1116 38.2029 19.132 38.2029ZM18.1347 35.4145C18.4196 35.3128 18.6842 35.1703 18.9285 35.0278C18.9285 35.0278 19.5594 35.1703 19.5187 35.3331C19.478 35.496 18.5825 35.8623 18.3179 35.9641C18.0533 36.0658 17.9108 36.249 17.5037 36.7171C17.117 37.1649 16.6286 36.9207 16.5064 36.3915C16.4047 35.9234 17.1781 35.7402 18.1347 35.4145ZM16.0994 35.7809C15.7737 35.9234 15.2445 36.3508 14.8782 35.9234C14.5118 35.496 14.9596 35.1296 15.0614 35.0685C15.1631 34.9871 15.4888 34.9668 16.1808 34.7429C16.7303 34.6004 17.2799 34.4987 17.8497 34.4376C17.8497 34.4376 18.4196 34.6411 18.3789 34.7022C18.3586 34.7632 16.425 35.6384 16.0994 35.7809ZM20.2921 35.2517C19.7426 34.4579 21.6354 34.4783 21.6354 34.4783C21.6354 34.4783 20.7195 35.903 20.2921 35.2517ZM20.3532 34.3358C19.7833 34.6208 19.6815 34.7429 19.3355 34.5801C18.9895 34.4172 19.1523 34.2341 19.7426 33.9288C20.3328 33.6235 21.0045 33.9898 21.0045 33.9898C21.0045 33.9898 20.9231 34.0509 20.3532 34.3358ZM17.7887 33.6845C17.6055 32.5651 19.8037 33.3792 19.8037 33.3792C19.8037 33.3792 17.9719 34.7225 17.7887 33.6845ZM17.7887 32.8908C17.1984 33.0739 16.3233 33.0739 16.3029 32.7483C16.2825 32.1987 16.9542 32.1377 17.4427 32.0766C17.9312 32.0156 18.6842 32.3209 18.6842 32.3209C18.44 32.6058 18.1347 32.789 17.7887 32.8908ZM16.6286 31.9545C16.0994 32.158 15.4888 32.4837 15.387 31.7103C15.2852 30.9368 16.6896 31.0386 17.1984 31.12C17.8701 31.2218 18.0329 31.6696 18.0329 31.6696C17.5444 31.7306 17.0763 31.812 16.6286 31.9545ZM15.0003 32.3005L15.5702 32.9315C14.9189 32.9925 14.2676 33.0943 13.6163 33.2368C12.7207 33.481 12.8225 33.5828 12.1305 33.8677C11.3774 34.173 10.9093 33.481 11.1128 33.0129C11.2757 32.6465 12.2323 32.3412 13.026 32.2394C13.6977 32.1377 15.0003 32.3005 15.0003 32.3005ZM14.1048 33.5828C14.8782 33.2775 16.2011 33.3589 16.2011 33.3589L17.1781 34.0305C16.71 34.0916 16.2418 34.173 15.7941 34.2951C15.3056 34.4172 14.8375 34.6411 14.4304 34.9261C14.1048 35.1092 13.6773 35.0889 13.372 34.865C12.8429 34.4579 13.3313 33.8881 14.1048 33.5828ZM13.8605 35.496C14.2676 36.9003 15.8551 36.3915 15.8551 36.3915C16.2825 37.6738 17.5241 37.1446 17.5241 37.1446C17.6259 37.4906 17.9719 37.7348 18.3382 37.6941C18.2161 37.9587 17.9515 38.1215 17.6666 38.1215C17.3002 38.1419 16.8117 38.1419 16.6489 38.0401C16.425 37.8976 16.1808 37.5923 15.9162 37.4702C14.8782 36.8596 13.4128 36.6968 13.4128 36.6968L13.2092 37.1039C15.2038 37.2667 16.1197 38.2843 16.1197 38.2843C15.8144 38.3251 15.5091 38.3861 15.2242 38.4879C14.8782 38.6507 14.5525 38.8542 14.2472 39.0781C14.003 39.2409 13.6977 39.4648 13.5756 39.4648C13.0667 39.3631 12.5579 39.302 12.0287 39.2613C11.9473 39.2613 11.8048 39.6277 11.8048 39.6277C11.8048 39.6277 12.965 39.7498 12.7818 39.8312C12.2119 40.0551 11.6827 40.34 11.1943 40.686V40.9506C11.1943 40.9506 12.3951 40.4214 12.7614 40.2993C13.1685 40.1568 13.5756 39.994 13.9826 39.7905C14.1455 39.6887 14.6339 39.3834 14.6543 39.5259C14.7154 39.933 14.6746 40.3604 14.5118 40.7267C14.3897 41.032 14.2269 41.2966 14.0233 41.5612L14.4304 41.8258C14.8375 41.378 15.1021 40.8285 15.2445 40.2383C15.3056 39.933 15.3056 39.6073 15.2649 39.2817C15.2649 39.1799 16.079 38.7728 16.6489 38.61C17.748 38.3251 18.094 38.4879 18.094 38.4879C18.094 38.4879 16.7914 40.1365 16.4861 40.5028C16.1401 40.8895 15.8348 41.317 15.5498 41.7444C15.5091 41.8665 15.4277 42.4364 15.8958 42.6399C16.2215 42.7824 16.6082 42.762 16.9135 42.5789C17.0153 43.0063 17.117 43.1691 17.4223 43.2505C17.7887 43.3319 18.1754 43.2098 18.44 42.9249C18.6639 43.1488 18.9895 43.2912 19.3152 43.3116C20.4142 43.4133 20.6381 42.2939 20.6381 42.2939C20.801 42.4364 21.1877 42.9045 21.2691 42.8638C21.4523 42.7824 21.6151 42.6399 21.6965 42.4771C21.7983 42.2532 21.6965 41.8258 21.8186 41.8869C22.0018 41.9886 22.185 42.8027 22.1443 43.0266C22.1239 43.1691 22.1443 43.1284 22.0018 43.1284C21.7983 43.108 21.5744 43.1284 21.3708 43.1691C21.0859 43.2098 20.8417 43.3319 20.6178 43.5151C20.6178 43.5151 18.5825 43.7186 18.0126 43.6576C17.4427 43.5965 17.2595 43.4744 16.8728 43.4337C16.6693 43.4133 15.8958 43.5762 14.8985 43.3116C14.1658 43.1081 13.8809 43.0266 13.2906 42.6399C12.7004 42.2532 12.5986 42.355 12.3747 42.1107C12.0898 41.8258 11.7641 41.5816 11.3978 41.3984C11.296 41.3577 11.1943 41.3373 11.0925 41.3373C10.95 41.317 10.5022 41.5612 10.4819 41.4594C10.3801 40.8285 11.3164 39.0578 11.7641 38.2436C12.4154 37.2667 13.1075 36.3508 13.8605 35.496ZM22.5106 42.701C22.2664 42.4567 22.246 42.0293 22.3274 41.9886C22.4699 42.0904 22.877 42.355 22.877 42.355C22.8363 42.1311 22.8159 41.9072 22.8363 41.6833C22.877 41.5816 23.1009 41.4798 23.1009 41.4798C23.1009 41.4798 23.1009 42.4975 23.5893 43.0063C23.8132 43.2302 24.0778 43.4337 24.3831 43.5558C24.7902 43.8204 25.238 44.0443 25.6857 44.2071C25.8689 44.2478 25.9503 44.6142 25.7671 44.6752C25.5432 44.777 25.2787 44.7567 25.0548 44.6142C24.8716 44.4514 24.5867 44.0239 24.2814 43.8001C23.9761 43.5762 23.1823 43.2098 23.1009 43.3726C23.0195 43.5355 23.0805 43.9425 23.3451 43.9629C23.6097 43.9832 23.9557 43.9425 24.0982 44.085C24.3017 44.2478 24.4238 44.4717 24.4442 44.7363C24.1389 44.5735 23.9353 44.4107 23.7522 44.431C23.569 44.4514 23.0398 44.5124 22.8566 44.4107C22.5717 44.2275 22.6735 44.0239 22.531 43.9425C22.3885 43.8611 21.0859 43.9425 21.0248 43.9018C20.9638 43.8611 21.1063 43.6576 21.1063 43.6576C21.1063 43.6576 22.6735 43.7186 22.6938 43.4541C22.8159 43.1691 22.7142 42.8842 22.5106 42.701ZM25.5229 41.4187C25.93 41.6223 26.276 41.9479 26.4999 42.355C26.6627 42.701 26.9273 43.0266 27.375 43.047C27.6803 43.047 28.006 43.0266 28.3113 42.9656C28.9219 43.0673 28.8608 43.3523 29.2068 43.4541C29.5935 43.5558 30.2245 43.4541 30.4077 43.8408C30.082 43.9629 29.7564 44.1054 29.39 43.9425C29.0236 43.7797 28.9829 43.4948 28.6166 43.4541C28.2502 43.4133 27.3954 43.4133 27.2733 43.5558C26.9273 43.9629 27.2936 43.7186 27.7414 43.739C28.4334 43.7797 28.698 44.2478 28.698 44.3903C28.6776 44.4921 28.5962 44.3496 28.1892 44.3699C27.7821 44.3903 27.4157 44.5531 27.1512 44.3089C26.8866 44.0647 25.93 44.0443 25.6857 43.8408C25.5432 43.7186 26.1946 43.6169 26.2353 43.2098C26.2963 42.701 25.8485 42.3346 25.645 42.009C25.238 41.7444 24.7902 41.6223 24.5459 41.1541L24.9123 40.971C25.0955 41.1338 25.3194 41.2763 25.5229 41.4187ZM25.3194 40.8285C25.3194 40.8285 26.0724 40.5232 26.9069 40.0958C26.9883 40.1161 27.4157 40.6453 27.5989 40.8081C27.7617 41.0117 27.9042 41.2356 28.006 41.4798C28.006 41.4798 27.5175 41.5409 27.1308 41.5409C26.7441 41.5409 25.8689 41.0117 25.8078 40.971C25.7468 40.9303 25.5025 41.0931 25.5025 41.0931L25.3194 40.8285ZM24.5459 42.7213C24.8919 42.701 24.9123 42.5382 24.9123 42.3346C24.9123 42.2329 24.9123 42.1311 24.9327 42.0497C24.9327 42.0497 25.7061 42.6399 25.4211 43.0877C24.8919 43.9018 23.8946 42.8435 23.8946 42.8435C23.7929 42.6806 23.6708 41.7851 23.6504 41.663C23.6708 41.663 23.8539 41.5001 24.0371 41.3984C24.1185 41.4391 24.1796 42.3957 24.2203 42.4975C24.261 42.6399 24.4035 42.7417 24.5459 42.7213ZM11.296 41.8665C11.3978 41.8665 11.642 42.1922 11.988 42.5178C12.2323 42.7824 12.4969 43.0063 12.7818 43.2098C12.9243 43.2709 15.8551 43.9832 16.3843 43.9832C16.71 43.9832 19.3355 43.8815 19.7629 43.9629C20.1904 44.0443 20.2311 44.2682 20.5567 44.3089C20.8824 44.3496 21.7576 44.1664 22.0629 44.3903C22.3682 44.6142 22.4089 44.8177 22.6327 44.8788C22.8159 44.9398 23.0195 44.9805 23.223 44.9602C23.5079 44.9398 23.915 44.8584 24.0575 45.0416C24.2203 45.2044 24.2203 45.469 24.0371 45.6318C23.9964 45.6726 23.9353 45.7133 23.8539 45.7336C24.3831 45.815 24.9123 45.5097 25.1158 45.0009C26.1538 44.9805 25.5433 45.7743 25.5433 45.7743C26.1946 45.815 26.7644 45.3265 26.8051 44.6752C26.8051 44.6345 26.8051 44.6142 26.8051 44.5735C27.2122 44.8584 27.5582 44.8991 28.1281 44.8991C28.6166 45.4894 28.067 45.7743 28.067 45.7743C29.2882 45.6929 29.2068 44.6345 29.2068 44.6345C29.4918 44.5938 29.7767 44.6142 30.0413 44.716C30.2855 45.0009 30.2652 45.4283 29.9802 45.6929C29.9395 45.7336 29.8988 45.754 29.8581 45.7743C30.9572 45.6929 31.1811 44.4717 31.1811 44.4717C31.1811 44.4717 33.6031 44.3903 34.3358 44.2682C35.3942 44.0646 36.5747 43.8815 36.9207 43.739C37.5109 43.4948 37.7755 43.3116 38.1826 43.1488C38.5896 43.0063 39.0171 42.701 39.1392 42.762C39.2613 42.8231 39.6684 43.5558 39.6277 43.6983C39.587 43.8408 38.1419 45.2858 37.979 45.3876C37.8162 45.4894 33.9084 45.9982 33.6031 45.9982C33.2978 45.9982 19.1931 46.0186 19.1931 46.0186C19.1931 46.0186 16.9949 46.1 16.6286 46.0186C16.2622 45.9371 13.4942 45.2655 13.311 45.123C13.1278 44.9805 10.9297 43.5965 10.8075 43.4337C10.6854 43.2709 10.3801 42.2532 10.4208 42.1515C10.4615 42.0497 11.1739 41.8665 11.296 41.8665ZM38.8339 42.2736C38.6507 42.2939 38.4472 42.9859 34.458 43.6983C33.5828 43.8408 31.4864 43.9018 31.2218 43.9018C30.9572 43.9018 31.0386 43.6983 31.0183 43.4133C30.9979 43.3116 30.428 42.9656 30.2855 42.8842C30.1431 42.8028 29.7971 42.9452 29.4511 42.9452C29.1051 42.9452 28.6573 42.7213 28.4741 42.7417C28.2909 42.762 27.6193 42.762 27.6193 42.762L27.2122 41.9072L28.2095 42.416L28.1281 41.9072L29.2475 42.1107C29.2475 42.1107 28.8608 41.5409 28.6573 41.1948C28.4538 40.8488 27.8025 39.933 27.8025 39.8108C28.006 39.7091 29.2272 38.6304 29.2272 38.6304C29.2272 38.6304 29.6139 39.0171 29.9192 39.2613C30.1431 39.4445 30.3873 39.5869 30.6519 39.7091C30.6519 39.7091 30.6112 39.9126 30.4891 40.686C30.428 41.1948 30.5298 41.7037 30.7944 42.1311L31.2218 42.1107C31.2218 42.1107 31.0183 41.5001 31.1607 41.1338C31.3032 40.7471 31.3643 40.3197 31.3032 39.9126C31.3032 39.9126 33.0129 40.1568 33.1553 40.1568C33.2978 40.1568 34.0102 40.5435 34.0102 40.5435C34.0102 40.5435 34.0712 41.4594 34.7632 42.9249L35.4145 42.9656C35.4145 42.9656 34.7225 42.355 34.8854 40.7878C35.9234 40.8895 36.9207 41.1745 37.8366 41.6426C38.1419 41.8258 38.4675 41.9479 38.8135 42.009C38.8135 42.009 38.7321 41.3577 37.2056 40.9099C37.2056 40.9099 37.2056 40.6657 38.5896 40.6657C38.5896 40.6657 38.3454 40.2586 36.9614 40.34C36.8189 40.34 36.6764 40.5232 36.188 40.5232C35.6995 40.5232 35.7198 40.1772 34.3562 40.1365C34.3562 40.1365 33.7863 38.8542 37.4702 38.4675L37.3074 38.2029C37.3074 38.2029 34.1323 38.0401 33.3792 39.6684C32.3209 39.8108 30.6926 39.2613 30.1024 38.7932C29.4307 38.264 29.5121 37.5923 29.6546 37.4906C29.736 37.4295 30.367 38.1826 30.367 38.1826C30.367 38.1826 30.7944 38.8542 31.4457 38.1419C31.4457 38.1419 32.0766 38.8339 32.8704 37.979C32.8704 37.979 33.6845 38.6507 33.9491 37.8162C33.9491 37.8162 34.5597 38.2029 34.7836 37.5516C34.7836 37.5516 35.6181 37.9383 35.6384 37.0428C35.6384 37.0428 36.6154 37.2667 37.2463 36.6357C37.5313 36.9003 37.7552 37.226 37.918 37.572C38.1419 38.1622 38.3861 38.7525 38.6507 39.3224C38.9356 39.7905 39.1799 40.2993 39.3834 40.7878C39.6073 41.3577 39.6887 42.4364 39.6887 42.4364C39.4241 42.3143 39.1392 42.2939 38.8339 42.2736ZM35.0482 32.7483C35.0482 32.7483 36.595 33.2164 36.4526 33.5624C36.3508 33.8677 36.0251 34.0102 35.7198 33.9084C35.7198 33.9084 35.7198 33.9084 35.6995 33.9084C35.496 33.8066 34.6411 33.4199 34.6411 33.4199C35.1296 33.2775 35.0685 32.7483 35.0482 32.7483ZM35.2721 34.3765C35.0889 34.6818 34.865 34.6818 34.458 34.6004C34.0712 34.4783 33.6845 34.3358 33.3182 34.1526C33.5624 33.9288 33.8474 33.7659 34.1527 33.6438C34.1527 33.6438 35.4349 34.0509 35.2517 34.3562M36.3508 36.0455C36.3915 36.3304 36.3101 36.6764 35.8623 36.6154C35.2517 36.5136 34.6818 36.2287 34.2137 35.8013C34.519 35.7605 34.804 35.557 34.9057 35.2517C34.9057 35.2721 36.3101 35.7605 36.3508 36.0455ZM34.2137 35.211C34.0305 35.7198 33.7863 35.4756 33.3385 35.1907C32.9518 34.9464 32.3209 34.5801 32.3209 34.5801C32.5651 34.519 32.789 34.4376 32.9925 34.2951C32.9925 34.2951 34.4376 34.6004 34.2137 35.211ZM33.9491 36.0658C33.9491 36.0658 34.9668 36.595 34.865 36.8189C34.7632 37.0428 34.4172 37.3888 34.0509 37.0835C33.7863 36.8596 33.5421 36.6154 33.3182 36.3508C33.5624 36.3304 33.7863 36.2287 33.9491 36.0658ZM33.481 37.3685C33.2978 37.572 32.9722 37.5923 32.7686 37.4092C32.7279 37.3685 32.7076 37.3481 32.6669 37.287C32.443 36.9614 32.0359 36.4526 32.0359 36.4526C32.3005 36.534 32.5855 36.4729 32.789 36.2897C32.7686 36.2897 33.5828 37.2463 33.481 37.3685ZM32.2802 37.4499C32.158 37.7348 31.8527 37.8976 31.6492 37.6941C31.3846 37.4295 30.7333 36.5747 30.7333 36.5747C31.0183 36.6357 31.3032 36.6154 31.5881 36.534C31.5881 36.534 32.4023 37.1649 32.2802 37.4499ZM30.8961 37.5516C30.774 37.8366 30.6926 37.9994 30.4484 37.6737C30.2448 37.4295 30.0006 37.226 29.736 37.0632C29.8785 36.8393 29.9599 36.5747 29.9802 36.3101C29.9802 36.3101 30.9979 37.2463 30.8961 37.5516ZM37.1242 35.8623C36.534 35.6384 35.3738 35.1907 35.3738 35.1907C35.8827 35.0889 35.9437 34.4986 35.9437 34.4986C36.3508 34.6615 36.7782 34.804 37.2056 34.9261C37.9383 35.1296 38.5896 35.2517 38.3047 35.6995C38.0401 36.1676 37.7145 36.0862 37.1242 35.8623ZM38.3658 34.9261C37.4295 34.7225 36.0048 34.2544 36.0048 34.2544C36.3101 34.1119 36.5747 33.8881 36.7782 33.6031C36.7782 33.6031 39.5259 34.0102 39.4648 34.519C39.4038 34.9668 39.302 35.1296 38.3658 34.9261ZM37.0835 32.9722C36.4729 33.0332 35.6384 32.6058 35.6384 32.6058C35.903 32.504 36.0455 32.2394 35.9844 31.9749C35.9844 31.9749 37.5109 32.2598 37.5313 32.5244C37.572 32.7686 37.4906 32.9315 37.0835 32.9722ZM37.5109 32.0563C37.1649 32.0156 36.2083 31.7306 36.2083 31.7306C36.4322 31.6085 36.6154 31.466 36.7782 31.2625C37.0224 31.3439 37.2667 31.3643 37.5109 31.3439C37.8773 31.3236 38.4879 31.3032 38.3658 31.6289C38.2233 31.9952 37.8569 32.1173 37.5109 32.0563ZM36.595 30.8758C36.8189 30.6926 37.0021 30.4687 37.1649 30.2041C37.1649 30.2041 39.648 30.1024 39.6073 30.367C39.5666 30.6519 39.3224 30.9979 39.1188 31.0183C38.264 31.0997 37.4295 31.0386 36.595 30.8758ZM37.572 28.4741C37.572 28.4741 35.8623 28.2909 35.6995 28.2909C35.6181 28.2909 35.2924 28.5759 35.3942 28.6166C35.6995 28.698 36.0251 28.7591 36.3508 28.7998C36.6154 28.8201 37.1853 28.7998 37.1853 29.0236C37.3277 29.3086 36.1269 29.2679 35.7198 29.2679C35.557 29.2679 34.6208 29.1865 34.6208 29.1865C34.5394 29.3086 34.4783 29.4307 34.4376 29.5528C34.4376 29.6139 36.0862 29.6953 36.2897 29.7971C36.534 29.8988 36.6154 30.3262 36.249 30.4077C35.8827 30.4891 35.496 30.5094 35.1296 30.428C34.4172 30.3262 34.2544 30.0617 34.1323 30.082C34.0102 30.1024 33.9491 30.4484 34.0509 30.5908C34.2341 30.8351 35.6995 30.8554 35.8216 30.8554C35.9437 30.8554 36.249 31.1404 36.188 31.2625C36.1269 31.3846 35.9437 31.405 35.557 31.405C35.211 31.4253 34.8854 31.3846 34.5597 31.3032C34.2951 31.1811 34.0509 31.059 33.8066 30.9165C33.8066 30.9165 33.5421 31.2014 33.5828 31.2421C33.827 31.466 34.1323 31.6085 34.458 31.7103C34.7022 31.7306 34.9464 31.7713 35.1907 31.8324C35.2517 31.8731 35.4553 32.2191 35.2721 32.2802C35.0889 32.3412 34.865 32.3819 34.4172 32.2598C33.9695 32.1377 33.6235 31.9341 33.5217 31.9341C33.4199 31.9341 33.3385 32.2191 33.3996 32.2802C33.6438 32.5244 33.9491 32.7483 34.2748 32.8908C34.1934 33.0536 34.0509 33.1553 33.8881 33.196C33.6031 33.2571 33.135 33.3182 32.9315 33.0739C32.7279 32.8297 32.6872 32.7076 32.6262 32.7076C32.5244 32.7483 32.4226 32.789 32.3412 32.8704C32.3616 32.8907 32.6669 32.9111 32.7483 33.1146C32.8297 33.3182 32.9518 33.5624 32.85 33.6642C32.6669 33.8066 32.4226 33.8677 32.1987 33.827C31.4864 33.6845 31.4457 33.196 31.3643 33.196C31.3643 33.196 31.1404 33.2368 31.2014 33.3792C31.2829 33.6031 31.4457 33.7863 31.6289 33.9288C31.8731 34.0916 32.158 34.0916 32.097 34.2137C32.0359 34.3358 31.9342 34.4987 31.7713 34.4376C31.0997 34.2137 30.9165 33.827 30.9165 33.827C30.9165 33.827 30.8351 33.9898 30.8758 34.0916C30.9165 34.1934 31.2014 34.5394 31.8527 34.8447C32.504 35.15 33.1757 35.211 33.0332 35.557C32.9315 35.8013 32.85 35.8623 32.6262 35.8216C32.4023 35.7809 31.5881 35.1703 31.2829 34.9668C30.9979 34.7429 30.6926 34.5394 30.367 34.3765C30.2855 34.3765 30.0617 34.865 30.367 35.0685C30.6723 35.2721 31.0997 35.1907 31.2218 35.2314C31.5067 35.3128 31.6492 35.6181 31.5678 35.8827C31.5474 35.9437 31.5271 35.9844 31.4864 36.0251C31.4864 36.0251 30.9368 35.5774 30.8758 35.5977C30.8147 35.6181 30.9165 36.0048 30.6112 36.0251C30.3059 36.0455 29.8581 35.9641 29.7971 35.6384C29.736 35.3128 29.8378 34.7225 29.7767 34.4986C29.7157 34.2748 29.4918 33.7049 29.4918 33.7049C29.4918 33.7049 29.3697 34.3969 29.3493 34.7632C29.3289 35.1296 29.2475 35.6181 29.2475 35.6181L28.1078 35.2924L27.8635 33.7456C28.8405 33.196 30.9165 33.0739 30.9165 33.0739L32.7076 31.9952C32.7076 31.9952 33.196 30.5094 33.5013 29.7971C33.8066 29.0847 34.7225 28.1688 35.3128 27.9449C36.1269 27.4972 37.0835 27.2936 38.0198 27.375C38.6304 28.2299 37.5923 28.4741 37.572 28.4741ZM30.4484 30.8147C30.0617 31.6289 29.4511 32.3412 28.6776 32.8093C29.3289 31.9545 29.7564 30.9775 29.9395 29.9192C30.021 30.1227 30.1024 30.3262 30.2245 30.5094L30.3873 30.7537L30.4484 30.8147ZM30.7537 28.0263C30.7537 28.0263 30.6112 27.9856 30.021 28.0874C29.4307 28.1892 29.3289 29.0033 29.2882 30.0617C29.2475 31.12 27.721 32.9111 27.721 32.9111C27.721 32.9111 25.645 29.4714 25.645 29.1254C25.645 28.7794 26.6627 28.1485 26.6627 28.1485L26.4591 27.7414L27.2936 27.2733L27.1308 26.8255L27.7414 26.4999L27.7007 26.0521C27.7007 26.0521 29.044 25.7264 29.3697 25.645C29.5732 25.6043 29.7564 25.2787 29.7564 25.2787C29.8988 25.5636 30.1634 25.7671 30.4891 25.8282C30.6519 25.8485 30.9368 25.7468 31.2014 25.8689C31.466 25.991 31.3236 26.3167 31.3236 26.3167C30.8554 26.8459 30.7537 27.3343 30.7537 28.0263ZM24.5663 25.8893C24.1999 25.6247 22.6531 25.238 22.6531 25.238L23.0195 24.8309L25.2787 25.4822L25.7264 26.3981L26.683 25.1972L28.0874 24.7291L28.6166 25.2583L27.1512 25.7061L27.1919 26.276L26.4999 26.5609L26.622 27.2326L25.4008 27.8635L25.8282 28.1281C25.6247 28.2909 25.4008 28.4538 25.1769 28.6166C24.8512 28.8201 24.8309 28.8405 24.4849 28.6573C24.1389 28.4741 24.3628 28.006 24.7291 27.6193C25.0955 27.2326 24.9327 26.1538 24.5663 25.8893ZM24.8512 29.1051C25.7264 31.6289 26.8866 33.0739 26.8866 33.0739C26.8866 33.0739 23.9557 32.2598 24.0575 29.1254C24.0575 29.1458 24.5663 29.1051 24.8512 29.1051ZM24.4442 17.5241C25.0955 16.8728 26.1538 16.8728 26.8051 17.5241L31.5271 22.246L31.1811 22.592L26.4591 17.8701C25.991 17.402 25.2583 17.402 24.7902 17.8701L20.1904 22.4699L19.8444 22.1239L24.4442 17.5241ZM21.3708 15.1021C21.3708 14.9799 21.4726 14.8782 21.5947 14.8782H29.6546C29.7767 14.8578 29.8785 14.9596 29.8988 15.0817C29.9192 15.2038 29.8174 15.3056 29.6953 15.3259C29.6749 15.3259 29.6749 15.3259 29.6546 15.3259H21.5947C21.4726 15.3259 21.3708 15.2242 21.3708 15.1021ZM18.9081 11.4588C18.9895 11.5403 19.5391 11.988 19.6815 11.9677C19.6815 11.9677 19.7629 11.8863 19.8444 10.9907C19.9054 10.4412 20.0072 9.81024 20.0072 9.81024C20.2718 10.2173 20.5771 10.5837 20.9231 10.9297C21.208 11.1943 21.5337 11.4181 21.9 11.581C21.9 11.581 21.7779 10.4412 21.9204 9.93236C22.0629 9.42353 22.4496 8.97576 22.5717 8.50763C22.6327 8.14128 22.6735 7.77492 22.6735 7.38821C22.6735 7.38821 22.9991 7.85633 23.2026 8.10057C23.3655 8.28375 23.569 8.42622 23.7929 8.52799C23.7929 8.52799 23.2433 7.22538 23.7522 6.14666C24.1592 5.27148 25.4415 3.94852 25.8893 3.29722C26.1335 2.91051 26.3167 2.48309 26.4184 2.03532C26.8662 2.76803 27.1919 3.56181 27.3954 4.39629C27.6396 5.27148 27.7617 6.14666 27.8025 7.06256C28.0263 6.87938 28.2299 6.6962 28.4334 6.47231C28.5962 6.26878 28.7183 6.0449 28.8405 5.82101C29.1458 6.37055 29.3493 6.96079 29.39 7.59174C29.4307 8.16163 29.2475 8.46693 29.6139 9.17929C29.736 9.42353 29.8988 9.64741 30.1024 9.83059C30.1431 9.83059 30.2245 9.52529 30.2652 9.40317C30.3059 9.28106 30.4891 8.89435 30.4891 8.89435C30.4891 8.89435 30.5908 8.97576 30.6112 9.74918C30.6315 10.1969 30.6519 10.9704 30.6519 10.9704C30.9368 10.8483 31.1811 10.6854 31.405 10.4819C31.7103 10.1766 32.097 9.70847 32.097 9.70847C32.2598 10.0341 32.3209 10.4005 32.2598 10.7465C32.2191 11.1332 31.8324 11.7031 31.751 11.8252C31.812 11.8659 31.9749 11.9066 31.9342 11.988C31.8324 12.2933 31.7103 12.5783 31.5678 12.8632C31.7103 12.6597 31.8934 12.4765 32.0766 12.2933C32.3209 12.1101 32.5855 12.0084 32.8704 11.9677C32.9315 12.334 32.8908 12.7004 32.7279 13.026C32.5855 13.3313 32.4226 13.5959 32.2191 13.8605C31.751 13.8809 29.1865 13.4942 29.1865 13.4942C29.5732 13.3517 29.9192 13.1278 30.2041 12.8429C30.5094 12.5579 30.713 12.1712 30.7944 11.7641C30.3059 11.8863 29.8581 12.0898 29.4714 12.3747C29.044 12.6393 28.6776 13.026 28.4334 13.4738C28.4334 13.4738 27.5379 13.4738 27.4972 13.372C27.4361 12.68 27.5582 11.988 27.8839 11.3774C28.1078 10.8483 28.352 10.5226 28.4538 9.76953C28.5148 9.32176 28.3723 8.85364 28.067 8.50763C27.9856 9.11823 27.8432 9.70847 27.6193 10.2784C27.4157 10.889 27.1919 11.1332 26.8662 11.8252C26.622 12.334 26.7237 13.3517 26.7237 13.3517L24.6477 13.3313C24.5663 12.9243 24.4035 12.5172 24.1592 12.1712C23.8336 11.6217 23.63 11.642 23.3248 11.0925C22.9991 10.6651 22.877 9.60671 22.877 9.60671C22.877 9.60671 22.5106 10.1969 22.7956 11.1739C22.938 11.6217 23.1619 12.0491 23.4876 12.3951C23.7725 12.8022 23.5283 13.311 23.4469 13.3313C22.3071 13.2906 21.9407 13.4128 21.8593 13.3517C21.7169 13.1889 21.5947 13.0057 21.493 12.8022C21.147 12.2933 20.7603 11.5403 20.6585 11.5199C20.455 11.4792 20.3532 12.2933 20.4753 12.5172C20.6585 12.8022 20.8213 13.1075 20.9231 13.4331C20.5364 13.5145 20.1293 13.5756 19.7222 13.6163C19.1727 13.0871 18.9081 11.4792 18.9081 11.4588ZM24.6477 18.501C24.6477 18.501 25.5636 17.5852 26.4184 18.3179C27.2326 19.0302 26.4998 19.9665 26.1742 20.3125C25.8485 20.6585 21.7169 25.2176 21.7169 25.2176C21.7169 25.2176 19.4576 24.6477 19.0302 24.4645C19.8851 23.6708 24.6477 18.501 24.6477 18.501ZM3.13439 26.1742C2.91051 26.2149 2.66627 26.0724 2.60521 25.8485C2.44238 25.4415 2.46274 25.0344 2.89015 24.9734C3.31757 24.9123 4.07064 25.0141 4.92547 25.1769C5.78031 25.3397 7.0422 25.9096 7.59174 26.1131C8.14127 26.3167 10.5226 26.622 10.5837 26.5202C10.6447 26.4184 10.6244 26.1335 10.5837 26.1335C10.543 26.1335 9.21999 26.0521 8.50763 25.8282C7.79527 25.6043 6.10596 24.9123 5.51571 24.7291C4.92547 24.5663 3.86711 24.3831 3.58216 24.4238C3.29722 24.4645 2.62556 24.607 2.46274 24.5663C2.29991 24.5256 1.70967 24.5459 1.42472 23.6708C1.13978 22.7956 1.09907 22.4292 1.50614 22.4496C1.89285 22.4699 3.43969 22.9584 3.78569 23.0398C4.11134 23.1212 6.85903 24.1389 7.63245 24.4035C8.40587 24.6681 10.258 25.584 10.7058 25.6654C11.1535 25.7468 16.1808 26.3777 16.6082 26.276C16.6082 26.276 15.8144 25.5025 15.5702 24.9327C15.3056 24.3628 15.0003 23.6911 15.1224 23.6708C15.2445 23.6504 17.3613 24.7698 20.455 25.4008C23.5486 26.0317 23.6911 25.5433 23.9964 26.3167C24.3017 27.0901 24.0168 27.1104 23.915 27.3343C23.8132 27.5582 23.223 28.6776 23.4265 29.4918C23.63 30.3059 24.5663 32.097 24.5663 32.097C24.5663 32.097 23.3655 31.6492 23.2433 31.5067C23.1212 31.3643 22.3478 30.082 22.3071 29.9395C22.2664 29.7971 22.3885 27.6396 22.2664 27.4564C22.0629 27.2122 21.839 26.968 21.5947 26.7644C21.4726 26.6423 20.2921 26.3167 20.2107 26.276C20.1293 26.2353 19.9868 26.1742 20.0072 26.2556C20.0275 26.337 21.5337 27.9449 21.5337 28.1078C21.5337 28.2706 21.5744 30.5501 21.6354 30.6519C21.6965 30.7537 22.6124 31.751 22.7142 31.8324C22.8159 31.9138 23.9761 32.5855 24.0371 32.6058C24.0982 32.6262 25.238 32.5448 25.3397 32.6262C25.4415 32.7076 26.276 33.3385 26.3574 33.3589C26.4388 33.3792 27.5582 33.5624 27.5175 33.6845C27.4768 33.8066 26.9476 34.8243 26.9476 34.8243L24.8512 34.2544L26.1538 35.842L25.1972 37.979L27.1308 36.9614L28.2095 38.0198L28.2299 36.4118L29.4918 35.903C29.4918 35.903 29.2882 37.4295 28.3927 38.2843C26.6627 40.1161 23.8132 40.8488 23.8132 40.8488L25.1362 38.9356L24.4849 38.8339L22.6531 41.2559C22.6531 41.2559 22.7142 41.2966 22.5106 41.2356C22.3071 41.1745 21.4116 40.8081 21.4116 40.8081C21.4116 40.8081 21.3912 41.378 21.3301 41.6223C21.3098 41.7647 21.2487 41.9072 21.1877 42.0497C20.9231 41.2763 20.4753 41.2559 20.4753 41.2559C20.1293 43.0877 19.132 42.701 19.132 42.701C18.8063 42.2532 19.2134 41.5816 19.2134 41.5816C19.3966 41.3373 19.5391 41.0931 19.7019 40.8488C19.824 40.6046 20.0886 39.7091 20.17 39.7498C20.2514 39.7905 20.4957 40.3197 20.4957 40.3197C20.8824 39.5666 21.9204 38.8542 21.9204 38.8542C21.2894 38.7118 20.6178 39.3631 20.6178 39.3631C20.5364 39.1799 20.5567 38.4472 20.5567 38.4472C19.5187 39.5055 18.7656 40.7878 18.3586 42.2125C17.6666 42.6399 17.6462 42.07 17.6462 42.07C17.8294 41.2763 19.0709 39.2817 19.7833 38.61C19.7833 38.61 20.4753 37.8162 20.9231 37.6127C21.3708 37.4092 21.9 37.2667 21.7372 37.0835C21.554 36.9207 21.2894 36.8596 21.0655 36.9817C20.8417 37.0632 20.1497 37.3888 19.9461 37.4295C19.7426 37.4702 19.0302 37.5313 19.1523 37.2667C19.3152 36.88 19.6205 36.7579 19.9258 36.6561C20.3735 36.5136 20.8417 36.4526 21.3098 36.4526C21.9204 36.4322 22.185 36.4526 22.5106 36.249C23.3655 35.7402 23.1823 35.1092 23.1823 35.1092C22.938 35.2314 21.6761 35.903 21.6761 35.903C21.5947 35.0685 22.5106 34.7429 22.5106 34.7429C22.5106 34.7429 23.6911 34.6411 23.7725 34.4172C23.9761 34.0305 23.5079 33.9695 23.5079 33.9695C23.3044 34.0509 23.1212 34.1526 22.938 34.2544C22.6735 34.3969 22.1443 34.3765 22.2664 34.0916C22.3885 33.8066 22.4699 33.5421 22.7956 33.5217L23.1009 33.5013L22.7956 33.135C22.6327 33.135 22.4699 33.196 22.3274 33.2978C22.185 33.4403 22.1239 33.6438 21.9611 33.6845C21.7983 33.7252 21.3912 33.7863 21.2894 33.5421C21.1877 33.3792 21.2487 33.1553 21.4319 33.0536C21.4523 33.0332 21.493 33.0332 21.5337 33.0129C21.7779 32.9111 22.3478 32.9111 22.3885 32.8297C22.4292 32.5855 21.9407 32.3616 21.9407 32.3616C21.6965 32.4837 21.4726 32.6058 21.2487 32.7483C20.9841 32.9111 20.6992 33.0129 20.3939 33.0332C20.2718 33.0129 19.9258 32.9722 19.9258 32.7279C19.9258 32.4226 20.4957 32.4023 20.5567 32.4023C20.801 32.3412 21.0452 32.2802 21.2691 32.1784C21.4319 32.097 21.7169 32.0156 21.7169 31.9749C21.6965 31.8527 21.6354 31.7306 21.554 31.6492C21.5133 31.6492 20.862 31.8934 20.6788 31.9545C20.4957 32.0156 19.5391 32.4226 19.3559 32.2191C19.1727 32.0359 19.0099 31.7103 19.4169 31.5474C19.7019 31.4457 20.0072 31.3439 20.2921 31.2829C20.4753 31.2014 20.6585 31.1607 20.862 31.1404C21.0655 31.12 21.1063 31.1607 21.0452 31.0386C20.9841 30.9165 20.9638 30.7944 20.8824 30.7944C20.5974 30.7944 20.3125 30.8351 20.0479 30.9165C19.8037 31.0386 19.5391 31.1404 19.2745 31.2218C19.1523 31.2218 18.6028 31.3846 18.4196 31.2014C18.2365 31.0183 18.0533 30.6315 18.4196 30.4891C18.7249 30.3873 19.0302 30.3262 19.3559 30.3262C19.5594 30.3262 19.7426 30.2855 19.9258 30.1838C20.1293 30.082 20.3532 29.9802 20.5974 29.9192C20.6585 29.9192 20.4346 29.4511 20.3939 29.4511C20.3532 29.4511 19.8647 29.7767 19.5391 29.8988C19.0709 30.0617 18.5825 30.1838 18.094 30.2448C17.8497 30.2448 17.3816 30.1838 17.402 29.8785C17.4223 29.5732 17.6259 29.5528 17.809 29.5732C17.9922 29.5732 18.6842 29.6546 19.0099 29.5121C19.3355 29.3696 20.2514 29.1051 20.2718 29.0236C20.2921 28.9422 20.2107 28.6369 20.17 28.6369C20.1293 28.6369 18.9081 29.0847 18.6435 29.1254C18.1957 29.1865 17.748 29.2272 17.3002 29.2272C16.9135 29.2068 16.6896 29.2475 16.6286 28.9829C16.5471 28.7387 16.6896 28.4741 16.9339 28.3927C16.9542 28.3927 16.9949 28.3723 17.0153 28.3723C17.3206 28.352 18.8674 28.2706 19.2134 28.2706C19.5594 28.2706 20.455 28.2706 20.455 28.1892C20.455 28.1077 20.4142 27.9653 20.3735 27.9653C20.3328 27.9653 18.8471 27.8839 18.5621 27.8839C18.2772 27.8839 17.2188 28.067 16.8524 28.0263C16.4861 27.9856 16.1808 27.7821 16.2011 27.5582C16.2215 27.3343 16.3233 27.0494 16.5878 27.0494C16.8728 27.0494 18.7046 27.0087 18.6842 26.9476C18.6639 26.8866 18.6435 26.6016 18.5621 26.5406C18.155 26.4388 17.7276 26.4184 17.3206 26.4591C16.8524 26.5202 16.3843 26.6627 15.9773 26.8866C15.733 27.0697 15.6312 27.1715 15.4481 27.1919C14.8985 27.1512 14.349 27.0901 13.8198 26.968C13.3313 26.8662 12.1305 26.622 11.642 26.683C10.3191 26.683 10.4005 27.314 10.4005 27.314C9.93235 27.3954 9.44388 27.3954 8.9554 27.314C8.24304 27.1104 7.55103 26.8459 6.87938 26.5202C4.43699 25.7468 3.33792 26.2353 3.13439 26.1742ZM3.5211 27.8228C3.29722 26.6016 4.09099 26.5813 4.98653 26.5813C5.53607 26.5813 7.46962 27.5379 8.36516 27.7414C9.17929 27.9449 9.48458 27.721 10.4615 27.8839C11.0925 28.006 11.6217 28.3723 11.9677 28.9015C11.9677 28.9015 10.258 29.0236 8.99611 28.7183C8.54834 28.6166 6.83867 28.5148 6.22808 28.6776C5.33254 28.9219 3.74499 29.044 3.5211 27.8228ZM7.20503 30.7944C6.71655 30.713 5.71925 30.2855 5.96348 29.6749C6.20772 29.0644 6.43161 28.8608 7.0015 28.8608C8.56869 28.8405 8.83328 29.1051 10.4819 29.1865C12.1305 29.2475 12.1916 29.2068 12.1916 29.2068C12.3137 29.4307 12.4562 29.6342 12.619 29.8174C12.9243 30.1838 13.311 30.5298 13.311 30.5298C13.311 30.5298 12.5579 30.428 12.1916 30.367C11.8252 30.3263 9.85094 30.3873 9.17929 30.6315C8.54834 30.8351 7.87668 30.8961 7.20503 30.7944ZM9.17929 32.0156C8.71117 31.2829 9.34211 30.9368 10.3598 30.774C11.0721 30.6723 13.6773 31.059 13.6773 31.059L14.5322 31.8934C14.5322 31.8934 13.0057 31.9138 12.5172 31.9749C12.0491 32.0359 11.7234 32.1987 11.1332 32.443C10.4412 32.7076 9.48459 32.4633 9.17929 32.0156ZM9.01646 46.8123C5.69889 39.8719 11.1535 34.1526 11.1535 34.1526L12.9039 35.211C12.9039 35.211 10.0545 38.6507 9.64741 42.4567C8.9147 49.0308 16.8117 51.3714 16.8117 51.3714C16.8117 51.3714 11.1332 51.229 9.01646 46.8123ZM17.8497 47.9725C18.0126 47.9114 18.2568 47.9114 18.3586 47.7079C18.4603 47.5043 18.44 47.0973 18.6232 47.0769C19.0506 47.0159 19.4984 47.0362 19.9258 47.0973C19.9258 47.0973 19.1931 47.4026 18.8878 47.8096C18.4603 48.3388 18.1143 48.7866 18.1143 48.7866C18.1143 48.7866 17.6869 48.0132 17.8497 47.9725ZM28.7998 47.3822L31.3846 47.3619C31.466 47.3619 32.3819 49.6007 29.7157 50.3945C28.5962 50.7201 27.4361 50.883 26.2556 50.883C26.4795 50.4963 26.7848 50.1502 27.1308 49.8653C27.66 49.4786 28.2299 49.3768 28.5759 48.8476C28.9219 48.3185 28.7387 47.6061 28.7998 47.3822ZM28.7387 52.6944C28.4131 52.2059 28.006 51.7785 27.4972 51.4529C27.4972 51.4529 29.7971 51.1883 30.6315 52.1245C31.5881 53.2032 31.3236 54.7501 31.3236 54.7501L29.2475 54.7704C29.3086 54.0174 29.1254 53.305 28.7387 52.6944ZM28.4538 54.3227C28.4538 54.8722 27.0697 55.0757 25.7061 54.2209C25.0955 53.3457 24.0168 52.7555 23.284 52.4298C21.6761 51.7174 20.9027 52.0431 20.4753 51.8192C20.17 51.6564 20.4753 51.4732 20.5771 51.4325C20.6788 51.3918 25.1362 51.3918 25.238 51.3918C25.8078 51.3714 26.3574 51.5139 26.8459 51.7989C27.2529 52.0634 27.6193 52.3891 27.9449 52.7555C28.3113 53.2032 28.4945 53.7528 28.4538 54.3227ZM27.66 48.7662C27.0697 49.0512 26.5406 49.4175 26.0724 49.8653C25.6247 50.2317 25.2787 50.9033 25.1565 50.9237C25.0344 50.944 20.5771 50.9644 20.4753 50.9237C20.3735 50.883 20.0479 50.6591 20.4753 50.4352C20.9027 50.2113 22.9177 49.7432 23.2026 49.5804C23.9964 49.0715 24.7291 48.4609 25.3804 47.7893C26.1742 47.2194 28.067 47.2397 28.067 47.7893C28.067 48.2371 27.8635 48.6645 27.66 48.7662ZM21.9611 49.4582C21.1266 49.845 19.6612 50.0688 19.4984 50.3945C19.2541 50.9033 18.9692 51.9413 20.1904 52.1245C21.8186 52.3687 24.0982 53.5085 24.0982 53.7121C24.0982 53.9156 22.6531 54.5669 21.9204 54.4855C21.1877 54.4041 18.7249 54.3023 18.0533 51.5953C17.6462 49.9467 18.5214 48.3592 20.1089 47.7079C21.1673 47.2804 22.0832 46.9344 23.9761 48.0742C24.1999 48.2574 22.7345 49.1122 21.9611 49.4582ZM20.0479 54.5872L17.9108 54.5669V53.4678C18.5418 53.9767 19.2745 54.3634 20.0479 54.5872ZM34.1323 56.5004L33.5828 56.8057L15.8958 56.8261L15.5091 56.5004H34.1323ZM32.097 55.1775L31.6492 55.727L17.056 55.7881L16.7303 55.1775H32.097ZM31.3846 52.0635C31.3236 52.0635 31.1404 51.636 30.6519 51.3511C30.1634 51.0661 29.736 51.0051 29.7564 50.9644C29.7767 50.9237 30.1227 50.944 30.6926 50.598C31.2625 50.252 31.405 50.0281 31.466 50.0281C31.7713 50.252 31.9545 50.5777 31.9749 50.944C31.9749 51.4122 31.751 51.8192 31.3846 52.0635ZM16.8524 46.3239H33.4403V46.7513H16.8524M41.2152 46.6292C39.0985 51.0458 33.4199 51.1883 33.4199 51.1883C33.4199 51.1883 41.317 48.8476 40.5843 42.2736C40.3197 39.9126 39.1188 37.6737 38.264 36.3304C38.4675 36.2897 38.6711 36.1676 38.7932 36.0048C38.8949 35.8623 38.9153 35.6791 38.8542 35.496C38.8542 35.496 39.5462 35.5977 39.7701 35.4349C39.8719 35.3535 39.9533 35.2314 39.994 35.1092C41.378 37.1242 43.6372 41.5612 41.2152 46.6292ZM40.9303 33.7049C40.8285 34.0509 40.6046 34.2748 39.7498 33.9898C38.8949 33.7252 37.4906 33.2164 37.4906 33.2164C38.0605 33.0129 38.1215 32.7483 38.1215 32.7483C38.1215 32.7483 39.4241 33.0332 39.933 33.1146C40.4418 33.196 41.032 33.3589 40.9303 33.7049ZM41.7851 32.4226C41.663 32.6058 41.6019 32.8908 40.9506 32.8093C40.2993 32.7279 38.4268 32.4837 38.3251 32.4633C38.6304 32.3005 38.9153 32.097 39.1392 31.8324C39.1392 31.8324 41.4391 31.7917 41.5816 31.8527C41.7851 31.9749 41.8665 32.2191 41.7851 32.4226ZM42.6806 31.4253C42.009 31.5474 39.5462 31.4457 39.5462 31.4457C39.8515 31.2828 40.0958 30.9979 40.1975 30.6519C40.1975 30.6519 43.1895 30.6112 43.2505 30.7333C43.3116 30.8554 43.3726 31.3032 42.6806 31.4253ZM43.6576 30.3466C43.3523 30.367 40.7674 30.2448 40.7674 30.2448C41.1949 29.9802 41.317 29.3493 41.317 29.3493C41.317 29.3493 44.3496 29.1458 44.3699 29.4307C44.3903 29.6953 43.9629 30.3262 43.6576 30.3466ZM45.3265 28.3113C45.2248 28.698 44.8788 28.9829 44.4717 28.9626C44.0647 28.9829 41.8258 29.044 41.7444 28.8405C41.663 28.6369 41.724 28.1892 42.3753 28.1281C42.6399 28.0874 45.4283 27.8839 45.3265 28.3113ZM46.5885 26.6423C46.4053 27.2326 46.1203 27.7007 44.3699 27.7821C42.6196 27.8635 41.8462 27.8635 41.8665 27.4564C41.8665 27.2529 42.2532 27.0697 42.6806 26.9476C44.4717 26.3981 45.815 26.2556 46.2017 26.2556C46.5884 26.2556 46.6699 26.3574 46.5885 26.6423ZM46.3239 25.7061C44.4514 26.1742 43.4337 26.3777 42.9452 26.4184C42.5178 26.4388 42.1515 25.9707 41.7444 25.9707C41.317 25.9707 37.1853 26.8459 35.903 27.3547C34.6208 27.8839 33.3385 28.4538 33.0129 29.5121C32.8908 29.9395 32.7483 30.367 32.5855 30.774C31.6492 32.9111 29.3697 32.9111 29.3697 32.9111C29.3697 32.9111 31.0793 31.0793 30.9368 30.774C30.8554 30.5908 30.4687 30.4484 30.774 29.8378C31.3439 29.8581 31.9138 29.8378 31.9138 29.4918C31.9138 28.9626 31.7103 28.7183 31.8324 28.6369C32.2395 28.3927 32.7483 28.3316 33.2164 28.4334C33.3182 27.9246 33.3182 27.4157 33.2164 26.9069C34.2137 26.4999 36.2287 25.3601 36.2287 25.3601L36.0251 26.6016C38.3454 26.337 40.6453 25.8893 42.8842 25.2583C47.5043 23.9353 49.0308 22.5513 49.0308 22.5513C49.1326 23.8539 48.2167 25.2583 46.3239 25.7061ZM26.6423 9.62706C26.7237 8.44657 26.4795 8.48728 26.3574 7.77492C26.1742 6.83867 26.4591 4.4777 26.4591 4.4777C26.1946 4.80335 25.9503 5.16971 25.7264 5.51571C25.4415 6.06525 25.3194 6.6962 25.3397 7.3068C25.4008 7.9581 25.7061 8.38551 25.6857 9.07752C25.6857 9.99342 25.5025 10.889 25.1972 11.7438C25.1972 11.7641 26.5609 10.8075 26.6423 9.62706Z" fill="#1D1D1B"/>
<path fill-rule="evenodd" clip-rule="evenodd" d="M29.8785 15.1021C29.8785 15.2242 29.7767 15.3259 29.6546 15.3259H21.5947C21.4726 15.3463 21.3708 15.2445 21.3505 15.1224C21.3301 15.0003 21.4319 14.8985 21.554 14.8782C21.5744 14.8782 21.5744 14.8782 21.5947 14.8782H29.6546C29.7767 14.8782 29.8785 14.9799 29.8785 15.1021Z" fill="white"/>
<path fill-rule="evenodd" clip-rule="evenodd" d="M26.4591 17.8701C25.991 17.402 25.2583 17.402 24.7902 17.8701L20.1904 22.4699L19.8444 22.1239L24.4442 17.5241C25.0955 16.8728 26.1538 16.8728 26.8051 17.5241L31.5271 22.2461L31.1811 22.5921" fill="white"/>
<path fill-rule="evenodd" clip-rule="evenodd" d="M25.7468 19.417C25.7468 19.6001 25.6043 19.7426 25.4211 19.7426C25.238 19.7426 25.0955 19.6001 25.0955 19.417C25.0955 19.2338 25.238 19.0913 25.4211 19.0913C25.6043 19.0913 25.7468 19.2338 25.7468 19.417Z" fill="white"/>
<path fill-rule="evenodd" clip-rule="evenodd" d="M9.64741 42.4568C8.9147 49.0309 16.8117 51.3715 16.8117 51.3715C16.8117 51.3715 11.1332 51.229 9.01646 46.8124C5.69889 39.872 11.1536 34.1527 11.1536 34.1527L12.9039 35.2111C12.9039 35.2111 10.0545 38.6508 9.64741 42.4568Z" fill="white"/>
<path fill-rule="evenodd" clip-rule="evenodd" d="M25.4211 19.071C25.2379 19.071 25.0751 19.2338 25.0751 19.417C25.0751 19.6001 25.2379 19.763 25.4211 19.763C25.6043 19.763 25.7671 19.6001 25.7671 19.417C25.7671 19.2134 25.6247 19.071 25.4211 19.071ZM26.4184 18.2975C25.584 17.5648 24.6477 18.4807 24.6477 18.4807C24.6477 18.4807 19.8647 23.6504 19.0302 24.4646C19.4576 24.6477 21.7168 25.2176 21.7168 25.2176C21.7168 25.2176 25.8689 20.6382 26.1742 20.3125C26.4795 19.9869 27.2326 19.0099 26.4184 18.2975ZM25.4211 20.1293C25.0344 20.1293 24.7088 19.8037 24.7088 19.417C24.7088 19.0303 25.0344 18.7046 25.4211 18.7046C25.8078 18.7046 26.1335 19.0303 26.1335 19.417C26.1335 19.8037 25.8282 20.1293 25.4211 20.1293Z" fill="white"/>
<path fill-rule="evenodd" clip-rule="evenodd" d="M27.5175 19.7833L25.991 21.4319L29.2475 25.1362C29.2475 25.1362 29.4511 25.238 29.6546 24.8309C29.8378 24.4646 29.9192 24.2814 29.9192 24.2814L30.367 25.1566L30.7333 24.7495C30.8351 24.9937 30.9979 25.1973 31.2014 25.3397C31.4864 25.5229 31.812 25.5229 31.8324 25.7061C31.8527 25.8893 31.8935 26.4185 32.6669 26.4999C33.3182 26.5609 33.4606 26.1132 33.4606 26.1132" fill="white"/>
<path fill-rule="evenodd" clip-rule="evenodd" d="M39.9737 35.1093C39.933 35.2314 39.8515 35.3535 39.7498 35.4349C39.5259 35.5977 38.8339 35.496 38.8339 35.496C38.8746 35.6588 38.8542 35.842 38.7728 36.0048C38.6507 36.1676 38.4472 36.2897 38.2436 36.3304C39.1188 37.6738 40.2993 39.8923 40.5639 42.2736C41.2966 48.8477 33.3996 51.1883 33.3996 51.1883C33.3996 51.1883 39.0781 51.0254 41.1949 46.6292C43.6576 41.5409 41.378 37.1242 39.9737 35.1093Z" fill="white"/>
<path fill-rule="evenodd" clip-rule="evenodd" d="M3.48039 51.1882L5.31218 50.4962L5.4343 50.8422L4.5184 52.0634L5.7396 51.5953L5.86171 51.9413L4.02993 52.6537L3.88746 52.2669L4.80335 51.0661L3.60251 51.5342" fill="#1D1D1B"/>
<path fill-rule="evenodd" clip-rule="evenodd" d="M4.39629 53.4678L5.129 53.1218L5.84136 51.9617L6.04489 52.3891L5.55642 53.1422L6.45196 53.2032L6.65549 53.6103L5.31218 53.4678L4.55911 53.8342" fill="#1D1D1B"/>
<path fill-rule="evenodd" clip-rule="evenodd" d="M5.80066 55.9509L5.55642 55.5845L5.84136 55.1978L5.41395 54.5465L4.94582 54.6483L4.72194 54.3023L6.77761 53.8749L7.0015 54.2209M6.06525 54.9129L6.53337 54.2819L5.7803 54.4651L6.06525 54.9129Z" fill="#1D1D1B"/>
<path fill-rule="evenodd" clip-rule="evenodd" d="M5.92278 56.1545L7.48997 54.9536L7.71385 55.2793L7.16432 56.704L8.20233 55.9102L8.42622 56.2155L6.85902 57.396L6.61478 57.0703L7.16432 55.666L6.14666 56.4394" fill="#1D1D1B"/>
<path fill-rule="evenodd" clip-rule="evenodd" d="M7.51033 57.1721L7.81562 57.4163C7.75456 57.4977 7.71386 57.6199 7.71386 57.7216C7.73421 57.8234 7.77492 57.9251 7.85633 57.9862C7.91739 58.0676 8.01916 58.1083 8.12092 58.1287C8.20233 58.149 8.26339 58.1083 8.32445 58.0676C8.36516 58.0473 8.36516 58.0066 8.38551 57.9455C8.38551 57.8844 8.36516 57.8437 8.34481 57.7827C8.32445 57.742 8.26339 57.6402 8.18198 57.4977C8.08022 57.3553 8.01916 57.2128 7.9988 57.05C7.97845 56.7854 8.14127 56.5615 8.40587 56.5004C8.50763 56.4801 8.62975 56.4801 8.71116 56.5208C8.83328 56.5615 8.93505 56.6429 9.03681 56.7447C9.19964 56.8668 9.30141 57.05 9.32176 57.2535C9.34211 57.4163 9.28105 57.5791 9.15894 57.7013L8.85364 57.4367C8.9147 57.3756 8.93505 57.2942 8.93505 57.2128C8.9147 57.1314 8.87399 57.05 8.79258 56.9889C8.73152 56.9278 8.65011 56.8668 8.54834 56.8464C8.50763 56.8464 8.44657 56.8464 8.42622 56.8871C8.38551 56.9278 8.38551 56.9686 8.38551 57.0093C8.42622 57.1314 8.48728 57.2535 8.54834 57.3553C8.62975 57.4774 8.69081 57.6199 8.75187 57.7623C8.79258 57.8641 8.79258 57.9659 8.77222 58.0676C8.75187 58.1694 8.69081 58.2712 8.6094 58.3526C8.52799 58.434 8.42622 58.495 8.32445 58.5154C8.20233 58.5357 8.08022 58.5357 7.97845 58.495C7.83598 58.434 7.71386 58.3526 7.61209 58.2508C7.44927 58.1287 7.3475 57.9252 7.32715 57.7216C7.32715 57.5181 7.38821 57.3349 7.51033 57.1721Z" fill="#1D1D1B"/>
<path fill-rule="evenodd" clip-rule="evenodd" d="M9.91201 59.9809L9.56601 59.7367L9.68813 59.2685L9.03682 58.8208L8.65011 59.0854L8.30411 58.8411L10.0545 57.6606L10.4005 57.9049M9.74918 58.9225L9.95272 58.1695L9.30141 58.6172L9.74918 58.9225Z" fill="#1D1D1B"/>
<path fill-rule="evenodd" clip-rule="evenodd" d="M10.1155 60.0826L11.0314 58.3525L11.6013 58.6578C11.7438 58.7189 11.8863 58.8003 12.0084 58.9021C12.0898 58.9835 12.1509 59.0853 12.1712 59.2074C12.1916 59.3498 12.1712 59.472 12.0898 59.5941C12.0491 59.6959 11.9677 59.7773 11.8863 59.8383C11.8252 59.879 11.7438 59.9197 11.642 59.9401C11.5606 59.9604 11.4996 59.9401 11.4181 59.9197C11.296 59.879 11.1536 59.818 11.0518 59.7569L10.8279 59.6348L10.4819 60.2861M11.235 58.841L10.9704 59.3295L11.1536 59.4313C11.235 59.4923 11.3367 59.533 11.4385 59.5534C11.4996 59.5534 11.5403 59.5534 11.6013 59.533C11.642 59.5127 11.6827 59.472 11.7031 59.4109C11.7438 59.3498 11.7438 59.2888 11.7234 59.2277C11.7031 59.1667 11.6827 59.1056 11.6217 59.0853C11.5403 59.0242 11.4588 58.9835 11.3774 58.9428L11.235 58.841Z" fill="#1D1D1B"/>
<path fill-rule="evenodd" clip-rule="evenodd" d="M12.3137 60.2047L12.0491 59.8994C12.1712 59.757 12.3544 59.6756 12.5376 59.6348C12.7207 59.6145 12.9039 59.6552 13.0667 59.757C13.2906 59.8791 13.4331 60.0826 13.4942 60.3065C13.5552 60.5711 13.4942 60.8357 13.3517 61.0596C13.2296 61.3038 13.0057 61.5073 12.7615 61.5888C12.5172 61.6702 12.2526 61.6295 12.0491 61.487C11.8456 61.3852 11.7031 61.2224 11.642 61.0189C11.6013 60.8764 11.6013 60.7543 11.642 60.6118L12.0287 60.7339C11.988 60.8153 11.988 60.9171 12.0287 61.0189C12.0694 61.1003 12.1305 61.1817 12.2119 61.2224C12.334 61.3038 12.4765 61.3038 12.5986 61.2631C12.7818 61.202 12.9243 61.0596 13.0057 60.8967C13.1075 60.7339 13.1685 60.5507 13.1482 60.3676C13.1278 60.2251 13.0464 60.1233 12.9243 60.0623C12.8429 60.0012 12.7411 60.0012 12.6393 60.0216C12.4969 60.0419 12.3951 60.103 12.3137 60.2047Z" fill="#1D1D1B"/>
<path fill-rule="evenodd" clip-rule="evenodd" d="M16.2419 65.3337L16.364 63.3187L16.7507 63.4408L16.6286 64.8249L17.3816 63.6444L17.8294 63.7665L17.748 65.1912L18.44 63.97L18.8267 64.0718L17.7887 65.8222L17.3816 65.7001L17.4427 64.1736L16.6489 65.4558" fill="#1D1D1B"/>
<path fill-rule="evenodd" clip-rule="evenodd" d="M19.0913 64.9266L18.7453 64.7231C18.8267 64.5602 18.9692 64.4178 19.1523 64.3364C19.5594 64.1939 20.0275 64.3567 20.2514 64.7434C20.3735 64.9877 20.3939 65.2522 20.3125 65.5168C20.2514 65.7814 20.1089 66.0257 19.8647 66.1885C19.6408 66.3106 19.3966 66.3513 19.1523 66.2699C18.9488 66.2292 18.7656 66.0867 18.6435 65.9035C18.5825 65.7814 18.5417 65.639 18.5417 65.4965H18.9488C18.9488 65.5983 18.9692 65.6797 19.0302 65.7611C19.0913 65.8425 19.1727 65.8832 19.2745 65.9239C19.3966 65.9646 19.5391 65.9443 19.6612 65.8628C19.8036 65.7407 19.8851 65.5779 19.9258 65.4151C19.9868 65.2319 19.9868 65.0487 19.9258 64.8655C19.8647 64.7434 19.7629 64.662 19.6205 64.6213C19.5187 64.6009 19.4169 64.6009 19.3355 64.6416C19.2134 64.7231 19.132 64.8248 19.0913 64.9266Z" fill="#1D1D1B"/>
<path fill-rule="evenodd" clip-rule="evenodd" d="M20.7195 65.8833H21.1063C21.1063 65.9851 21.147 66.0869 21.2284 66.1886C21.3098 66.27 21.4115 66.3107 21.5133 66.3107C21.6151 66.3311 21.7168 66.3107 21.7983 66.2497C21.8593 66.209 21.9 66.1479 21.9204 66.0665C21.9204 66.0258 21.9204 65.9851 21.9 65.9444C21.8593 65.9037 21.8186 65.863 21.7576 65.8426C21.7168 65.8223 21.6151 65.7816 21.4523 65.7205C21.2894 65.6798 21.147 65.5984 21.0248 65.4966C20.8417 65.3134 20.8213 65.0285 20.9841 64.825C21.0452 64.7435 21.147 64.6825 21.2487 64.6418C21.3708 64.6011 21.5133 64.6011 21.6354 64.6011C21.839 64.6011 22.0221 64.6825 22.185 64.8046C22.3071 64.9267 22.3682 65.0896 22.3478 65.2524L21.9407 65.232C21.9407 65.1506 21.9 65.0692 21.8593 65.0081C21.7983 64.9471 21.6965 64.9267 21.6151 64.9267C21.5133 64.9064 21.4319 64.9267 21.3301 64.9674C21.2894 64.9878 21.2691 65.0285 21.2487 65.0896C21.2487 65.1303 21.2691 65.1913 21.2894 65.2117C21.3912 65.2931 21.5133 65.3338 21.6354 65.3745C21.7779 65.4152 21.9204 65.4763 22.0425 65.5577C22.1239 65.6187 22.2053 65.6798 22.246 65.7816C22.2867 65.8833 22.3071 65.9851 22.2867 66.1072C22.2867 66.209 22.2257 66.3311 22.1646 66.4125C22.1036 66.5143 22.0018 66.5753 21.8797 66.616C21.7372 66.6568 21.5947 66.6567 21.4523 66.6567C21.2487 66.6567 21.0452 66.5753 20.9027 66.4329C20.7806 66.2904 20.6992 66.1072 20.6992 65.924" fill="#1D1D1B"/>
<path fill-rule="evenodd" clip-rule="evenodd" d="M24.5663 66.7584H24.1389L23.9761 66.3107L23.2026 66.2903L23.0398 66.7381H22.6124L23.4062 64.7842H23.8336M23.8539 65.9647L23.5893 65.2319L23.3044 65.9443L23.8539 65.9647Z" fill="#1D1D1B"/>
<path fill-rule="evenodd" clip-rule="evenodd" d="M24.9734 66.7382L24.8716 64.7639L25.2583 64.7436L26.1131 66.0258L26.0521 64.7028L26.4184 64.6825L26.5202 66.6568L26.1335 66.6771L25.2787 65.4356L25.3397 66.7178" fill="#1D1D1B"/>
<path fill-rule="evenodd" clip-rule="evenodd" d="M27.1104 66.5956L26.8051 64.6417L28.2502 64.4178L28.2909 64.7435L27.2529 64.9063L27.314 65.3541L28.2909 65.1913L28.352 65.5169L27.375 65.6797L27.4564 66.2089L28.5352 66.0257L28.5962 66.3514" fill="#1D1D1B"/>
<path fill-rule="evenodd" clip-rule="evenodd" d="M29.8581 66.0868L29.3697 64.1736L29.7564 64.0922L30.8554 65.1709L30.5298 63.8887L30.8961 63.8073L31.3643 65.7001L30.9776 65.8019L29.8988 64.7435L30.2041 65.985" fill="#1D1D1B"/>
<path fill-rule="evenodd" clip-rule="evenodd" d="M31.5678 64.5807C31.5067 64.4179 31.4864 64.2347 31.5067 64.0719C31.5271 63.9701 31.5474 63.848 31.5881 63.7666C31.6289 63.6648 31.6899 63.5834 31.7713 63.5224C31.8731 63.4206 32.0156 63.3595 32.158 63.3188C32.4023 63.2374 32.6669 63.2374 32.8907 63.3595C33.3589 63.6648 33.542 64.2551 33.3589 64.7843C33.0943 65.2524 32.5244 65.4356 32.0359 65.2117C31.812 65.0895 31.6288 64.8657 31.5678 64.5807ZM31.9545 64.4586C31.9952 64.6418 32.097 64.7843 32.2598 64.886C32.3819 64.9674 32.5447 64.9878 32.6872 64.9267C32.8297 64.886 32.9518 64.7843 33.0129 64.6418C33.1146 64.2958 32.9925 63.9091 32.7076 63.6648C32.5855 63.5834 32.4226 63.5834 32.2802 63.6241C32.1377 63.6648 32.0156 63.7666 31.9545 63.9091C31.8731 64.1126 31.8731 64.2958 31.9545 64.4586Z" fill="#1D1D1B"/>
<path fill-rule="evenodd" clip-rule="evenodd" d="M34.3969 60.0826L34.6004 60.0012L35.3738 59.6755C35.5367 59.5941 35.7198 59.5738 35.903 59.6145C36.0455 59.6552 36.1676 59.7569 36.2287 59.8994C36.3101 60.0419 36.3101 60.2047 36.2083 60.3268C36.188 60.3472 36.188 60.3675 36.1676 60.3879C36.2287 60.3879 36.2694 60.3879 36.3304 60.3879C36.4933 60.4082 36.6357 60.51 36.6968 60.6728C36.7986 60.8357 36.7986 61.0188 36.7171 61.1817C36.595 61.3648 36.4322 61.5073 36.2287 61.5684L35.5163 61.8737L35.3128 61.9551M35.1703 60.6321L35.6588 60.4286C35.7402 60.4082 35.8216 60.3472 35.8623 60.2658C35.903 60.2047 35.903 60.1233 35.8623 60.0622C35.842 60.0012 35.7809 59.9605 35.6995 59.9605C35.5977 59.9605 35.5163 59.9808 35.4349 60.0215L34.9668 60.2251L35.1703 60.6321ZM35.5774 61.4463L36.0862 61.2224C36.1676 61.202 36.249 61.141 36.3101 61.0595C36.3508 60.9781 36.3304 60.8967 36.2897 60.8357C36.2694 60.7542 36.188 60.7135 36.1269 60.6932C36.0251 60.6728 35.9234 60.6932 35.842 60.7339L35.3331 60.9374L35.5774 61.4463Z" fill="#1D1D1B"/>
<path fill-rule="evenodd" clip-rule="evenodd" d="M36.249 59.3092L36.4933 59.1871L36.7375 59.0649L38.4472 60.5507L38.2233 60.6525L37.9994 60.7543L37.6534 60.449L36.9003 60.8153L36.9817 61.2427L36.7782 61.3445L36.5543 61.4463M36.88 60.449L37.4092 60.2047L36.7375 59.5941L36.88 60.449Z" fill="#1D1D1B"/>
<path fill-rule="evenodd" clip-rule="evenodd" d="M37.4092 58.7596L37.5923 58.6375L38.1826 58.2508C38.3861 58.088 38.6507 58.0269 38.8949 58.0676C39.4445 58.2508 39.8312 58.7393 39.8719 59.3092C39.8312 59.5738 39.6887 59.7976 39.4648 59.9198L38.9153 60.2861L38.7321 60.4082M38.8746 59.8587L39.1799 59.6348C39.3224 59.5534 39.4038 59.4109 39.4038 59.2685C39.3834 59.0853 39.302 58.9021 39.1799 58.7596C39.0781 58.6172 38.9356 58.495 38.7728 58.4543C38.6304 58.4136 38.4675 58.4543 38.3454 58.5358L37.9994 58.78L38.8746 59.8587Z" fill="#1D1D1B"/>
<path fill-rule="evenodd" clip-rule="evenodd" d="M40.8692 58.9225L38.8746 57.8437L39.0374 57.6809L39.2206 57.5385L40.625 58.3729L39.7091 57.0907L39.8922 56.9279L40.0551 56.765L41.4187 57.6199L40.5436 56.3173L40.7267 56.1748L40.8896 56.012L41.9886 57.8845L41.8462 58.0269L41.6833 58.1694L40.1975 57.2535L41.1745 58.6375L41.0117 58.78" fill="#1D1D1B"/>
<path fill-rule="evenodd" clip-rule="evenodd" d="M42.7621 57.05L40.9099 55.9102L41.8258 54.6483L41.9886 54.7501L42.1515 54.8518L41.5002 55.7474L41.8869 55.9916L42.4975 55.1571L42.6603 55.2589L42.8231 55.3607L42.2125 56.1952L42.701 56.4801L43.3726 55.5439L43.5355 55.6456L43.6983 55.7474" fill="#1D1D1B"/>
<path fill-rule="evenodd" clip-rule="evenodd" d="M44.1054 55.1164L44.0036 55.2792L43.9018 55.4624L41.9276 54.5058L42.0497 54.3226L42.1515 54.1191L43.9629 54.058L42.5789 53.3864L42.6806 53.2032L42.762 53.02L44.7363 53.9766L44.6345 54.1802L44.5328 54.3633L42.6806 54.4244" fill="#1D1D1B"/>
<path fill-rule="evenodd" clip-rule="evenodd" d="M45.0416 53.2236L44.9806 53.4271L44.8991 53.6103L42.8028 52.9183L42.9249 52.6333L43.047 52.328L44.8381 52.5316L43.3116 51.636L43.4134 51.3307L43.5355 51.0458L45.6319 51.7378L45.5504 51.921L45.469 52.1041L43.7187 51.5343L45.3469 52.4705L45.2655 52.674L45.1841 52.8776L43.2505 52.6333" fill="#1D1D1B"/>
<path fill-rule="evenodd" clip-rule="evenodd" d="M43.6779 50.598L43.7594 50.3538L43.8408 50.1095L46.1814 49.967L46.1203 50.1909L46.0593 50.4148L45.5911 50.4352L45.3673 51.1882L45.754 51.4325L45.6929 51.636L45.6319 51.8395M45.0009 50.9643L45.1637 50.4352L44.2275 50.4759L45.0009 50.9643Z" fill="#1D1D1B"/>
</g>
</svg>
