<svg width="155" height="68" viewBox="0 0 155 68" fill="none" xmlns="http://www.w3.org/2000/svg">
<rect width="1" height="68" rx="0.5" fill="#2E6C23"/>
<path d="M18.7614 29V14.4545H20.5227V21.6705H20.6932L27.2273 14.4545H29.5284L23.4205 21.017L29.5284 29H27.3977L22.3409 22.2386L20.5227 24.2841V29H18.7614ZM43.3423 14.4545V29H41.6378L33.7116 17.5795H33.5696V29H31.8082V14.4545H33.5128L41.4673 25.9034H41.6094V14.4545H43.3423ZM56.4123 14.4545H58.1737V24.0852C58.1737 25.0795 57.9393 25.9673 57.4705 26.7486C57.0065 27.5251 56.3507 28.1383 55.5032 28.5881C54.6557 29.0331 53.6613 29.2557 52.5202 29.2557C51.3791 29.2557 50.3848 29.0331 49.5373 28.5881C48.6897 28.1383 48.0316 27.5251 47.5629 26.7486C47.0988 25.9673 46.8668 25.0795 46.8668 24.0852V14.4545H48.6282V23.9432C48.6282 24.6534 48.7844 25.2855 49.0969 25.8395C49.4094 26.3887 49.8545 26.822 50.4322 27.1392C51.0146 27.4517 51.7106 27.608 52.5202 27.608C53.3299 27.608 54.0259 27.4517 54.6083 27.1392C55.1907 26.822 55.6358 26.3887 55.9435 25.8395C56.256 25.2855 56.4123 24.6534 56.4123 23.9432V14.4545ZM69.6456 18.0909C69.5604 17.3712 69.2147 16.8125 68.6087 16.4148C68.0026 16.017 67.2592 15.8182 66.3786 15.8182C65.7346 15.8182 65.1712 15.9223 64.6882 16.1307C64.21 16.339 63.8359 16.6255 63.5661 16.9901C63.3009 17.3546 63.1683 17.7689 63.1683 18.233C63.1683 18.6212 63.2607 18.955 63.4453 19.2344C63.6347 19.509 63.8762 19.7386 64.1697 19.9233C64.4633 20.1032 64.7711 20.2524 65.093 20.3707C65.415 20.4844 65.7109 20.5767 65.9808 20.6477L67.4581 21.0455C67.8369 21.1449 68.2583 21.2822 68.7223 21.4574C69.1911 21.6326 69.6385 21.8717 70.0646 22.1747C70.4955 22.473 70.8506 22.8565 71.13 23.3253C71.4093 23.794 71.549 24.3693 71.549 25.0511C71.549 25.8371 71.343 26.5473 70.9311 27.1818C70.5239 27.8163 69.9273 28.3205 69.1413 28.6946C68.3601 29.0687 67.4107 29.2557 66.2933 29.2557C65.2517 29.2557 64.3497 29.0876 63.5874 28.7514C62.8298 28.4152 62.2332 27.9465 61.7976 27.3452C61.3667 26.7438 61.1229 26.0455 61.0661 25.25H62.8842C62.9316 25.7992 63.1162 26.2538 63.4382 26.6136C63.7649 26.9687 64.1768 27.2339 64.674 27.4091C65.1759 27.5795 65.7157 27.6648 66.2933 27.6648C66.9657 27.6648 67.5694 27.5559 68.1044 27.3381C68.6394 27.1155 69.0632 26.8078 69.3757 26.4148C69.6882 26.017 69.8445 25.553 69.8445 25.0227C69.8445 24.5398 69.7095 24.1468 69.4396 23.8438C69.1697 23.5407 68.8146 23.2945 68.3743 23.1051C67.9339 22.9157 67.4581 22.75 66.9467 22.608L65.157 22.0966C64.0206 21.7699 63.121 21.3035 62.4581 20.6974C61.7952 20.0914 61.4638 19.2983 61.4638 18.3182C61.4638 17.5038 61.6839 16.7936 62.1243 16.1875C62.5694 15.5767 63.166 15.1032 63.9141 14.767C64.6669 14.4261 65.5073 14.2557 66.4354 14.2557C67.3729 14.2557 68.2062 14.4238 68.9354 14.7599C69.6645 15.0914 70.2422 15.5459 70.6683 16.1236C71.0992 16.7012 71.3265 17.357 71.3501 18.0909H69.6456ZM73.6495 16.017V14.4545H84.5586V16.017H79.9847V29H78.2234V16.017H73.6495Z" fill="black"/>
<path d="M19.358 52H17.5114L22.8523 37.4545H24.6705L30.0114 52H28.1648L23.8182 39.7557H23.7045L19.358 52ZM20.0398 46.3182H27.483V47.8807H20.0398V46.3182ZM29.7823 39.017V37.4545H40.6914V39.017H36.1175V52H34.3562V39.017H29.7823ZM42.6143 39.017V37.4545H53.5234V39.017H48.9496V52H47.1882V39.017H42.6143ZM56.2418 52V37.4545H65.0202V39.017H58.0032V43.9318H64.5657V45.4943H58.0032V50.4375H65.1339V52H56.2418ZM79.729 37.4545V52H78.0245L70.0984 40.5795H69.9563V52H68.195V37.4545H69.8995L77.854 48.9034H77.9961V37.4545H79.729ZM87.7422 52H83.2536V37.4545H87.9411C89.352 37.4545 90.5594 37.7457 91.5632 38.3281C92.567 38.9058 93.3364 39.7367 93.8714 40.821C94.4065 41.9006 94.674 43.1932 94.674 44.6989C94.674 46.214 94.4041 47.5185 93.8643 48.6122C93.3246 49.7012 92.5386 50.5393 91.5064 51.1264C90.4742 51.7088 89.2195 52 87.7422 52ZM85.0149 50.4375H87.6286C88.8312 50.4375 89.8279 50.2055 90.6186 49.7415C91.4093 49.2775 91.9988 48.617 92.3871 47.7599C92.7753 46.9029 92.9695 45.8826 92.9695 44.6989C92.9695 43.5246 92.7777 42.5137 92.3942 41.6662C92.0107 40.8139 91.4377 40.1605 90.6754 39.706C89.9131 39.2467 88.9638 39.017 87.8274 39.017H85.0149V50.4375ZM97.5415 52H95.695L101.036 37.4545H102.854L108.195 52H106.348L102.002 39.7557H101.888L97.5415 52ZM98.2234 46.3182H105.667V47.8807H98.2234V46.3182ZM121.995 37.4545V52H120.29L112.364 40.5795H112.222V52H110.461V37.4545H112.165L120.12 48.9034H120.262V37.4545H121.995ZM137.224 42H135.462C135.358 41.4934 135.176 41.0483 134.915 40.6648C134.66 40.2812 134.347 39.9593 133.978 39.6989C133.613 39.4337 133.209 39.2348 132.763 39.1023C132.318 38.9697 131.854 38.9034 131.371 38.9034C130.491 38.9034 129.693 39.1259 128.978 39.571C128.268 40.0161 127.702 40.6719 127.281 41.5384C126.864 42.4048 126.656 43.4678 126.656 44.7273C126.656 45.9867 126.864 47.0497 127.281 47.9162C127.702 48.7827 128.268 49.4384 128.978 49.8835C129.693 50.3286 130.491 50.5511 131.371 50.5511C131.854 50.5511 132.318 50.4848 132.763 50.3523C133.209 50.2197 133.613 50.0232 133.978 49.7628C134.347 49.4976 134.66 49.1733 134.915 48.7898C135.176 48.4015 135.358 47.9564 135.462 47.4545H137.224C137.091 48.1979 136.85 48.8632 136.499 49.4503C136.149 50.0374 135.713 50.5369 135.192 50.9489C134.672 51.3561 134.087 51.6662 133.438 51.8793C132.794 52.0923 132.105 52.1989 131.371 52.1989C130.131 52.1989 129.028 51.8958 128.062 51.2898C127.096 50.6837 126.336 49.822 125.782 48.7045C125.228 47.5871 124.951 46.2614 124.951 44.7273C124.951 43.1932 125.228 41.8674 125.782 40.75C126.336 39.6326 127.096 38.7708 128.062 38.1648C129.028 37.5587 130.131 37.2557 131.371 37.2557C132.105 37.2557 132.794 37.3622 133.438 37.5753C134.087 37.7884 134.672 38.1009 135.192 38.5128C135.713 38.92 136.149 39.4171 136.499 40.0043C136.85 40.5866 137.091 41.2519 137.224 42ZM140.07 52V37.4545H148.848V39.017H141.831V43.9318H148.394V45.4943H141.831V50.4375H148.962V52H140.07Z" fill="black"/>
</svg>
